<?xml version="1.0" encoding="UTF-8" standalone="no"?>
<svg id="svg2" xmlns:rdf="http://www.w3.org/1999/02/22-rdf-syntax-ns#" xmlns="http://www.w3.org/2000/svg" height="1195pt" width="2203pt" version="1.1" xmlns:cc="http://creativecommons.org/ns#" xmlns:dc="http://purl.org/dc/elements/1.1/" viewBox="0 0 2203 1195">
<path id="path80" d="m2126.4 1142.4c20.96-0.72-18.41 3.95 0 0zm4.67-77.1c9.4-0.22-4.17 5.74 0 0zm-0.03-9c4.99 1 4.03 10.42-1.99 6.68 4.15-1.72-0.33-4.02 1.99-6.68zm-5.24-63.05c8.97-1.43 5.64 8.06 0 0zm1.39-11.2c6.05-2.06 5.02 9.71 0.05 9.42 0.45-3.12 0.04-6.34-0.05-9.42zm-0.91-14.16c6 5.66-3.4 8.51 0 0zm-174.11-83.35c15.14-0.17 22.32 15.49 22.77 28.32-3.79 20.14-33.49 28.13-46.99 13.16-11.99-17.99 2.38-43.82 24.22-41.48m-5.51 8.88c-13.56 1.65-17.63 23.48-5.96 28.76-1.91-10.55 13.11-14.48 16.3-23.39 2.55-7.68-6.32-5.79-10.34-5.37m12.68 10.72c-4.99 5.94-10.81 11.97-15.16 17.97 9.28 7.25 29.45-11.48 15.16-17.97zm151.02-67.75c6.8 3.33-9.37 2.03 0 0zm-1.98-8.18c5.71 3.17-7.56 7.03 0 0zm-3.14-6.02c9.33-1.11-0.33 8.3 0 0zm-21.06-98.25c3.3 7.49 3.88 15.34 4.05 22.85 6.73 0.22-0.12 7.67 4.18 6.71 3.08 16.93 9.54 40 13.1 57.65-8.97-3.61-2.44-15.7-8.5-21.08-4.14-21.56-11.42-42.25-16.47-63.51 2.25 0.88 2.98-0.77 3.64-2.62zm-24.08-68.85c3.76 1.48 6.87 9.21 4.04 12.94 9.07 2.17 2.44 15.91 8.75 18.84 0.26 7.13 10.7 25 10.05 36.09-0.27-4.02-10.51-10.49-6.05-16.93 0.55-1.93-2.91 0.8-3.49-0.83-2.89-17.1-12.9-32.53-13.3-50.11zm33.12-11.79c5.94 1.66-2.95 7.58 0 0zm-40.28-0.51c4.03-0.58 6.37 3.41 6.24 6.99-2.57-1.15-5.31-4.15-6.24-6.99zm42.61-5.37c6.79-0.59-7.35 7.66 0 0zm-42.61 5.37c-2.45-2.64-5.92-9.77 0.12-11.59 0.04 3.08 5.95 10.98-0.12 11.59zm-15.18-34.47c8.31-2.49 0.27 6.17 5.96 8.64 2.89-3.91 4.4 2.54 5.11 4.97-5.85-1.69-8.71-6.74-11.07-13.61zm-11.64-32.82c3.66 7.07 10.21 19.01 13.52 28.85 3.12 3.1-1.15 2.61-3.5 2.21-3.42-10.27-9.95-19.21-12.87-29.65-0.48-1.5 1.97-1.03 2.85-1.41zm-6.02-5.73c8.97-0.99 3.68 6.98 0 0zc-4.17-1.24-6.22-10.33 0.41-8.72-1.84 2.77-0.21 6.98-0.41 8.72zm-291.09-25.51c4.85-0.1 7.77 4.08 8.3 8.51-5.34-2.11-12.27-0.3-8.3-8.51zm230.55-39.77c6.95-5.44 6.39 7.13 11.62 1.88 8.14-3.99 8.15 7.97 14.92 7.81-4.72 3.81 0.73 4.09 4.81 0.91 9.99 9.71 19.68 20.69 23.58 33.79-6.26 4.82-9.08-2.71-11.62-7.72-12.36-10.21-18.2-32.9-38.65-29.08-32.08-1.44-53.69 29.68-85.35 29.07-20.93 1.3-42.27-12.12-62.84-2.99-12.84 2.75-20.55 17.09-15.61 29.31 2.62 4.96-6.35 6.09-3.43 11.67 1.64 37.23 2.05 74.67 0.22 111.83-4.02-0.09-0.22 9.04 0.15 13.62-1.58 118.79-18.68 236.48-33.57 354.28 9.98-31.3 11.12-69.34 17.72-103.13 6.83-80.69 18.06-161.96 19.87-243.47 5.15-49.64-0.8-102.51 4.27-152.96 1.77-7.01 4.74-17.34 14.04-16.43 27.56-8.87 53.35 13.91 80.42 4.42 16.5-14.72 37.31-21.17 57.47-28.78 21.69-0.43 39.22 16.56 43.92 35.95-1.35 12.62 13.31 22.79 15.37 35.39-8.02 2.39-7.17-7.94-11.8-9.53-4.71 5.69-3.13 16.1 2.19 21.46 6.25-3.62 1.46-15.55 10.9-10.12 20.07 30.09 25.95 66.7 39.4 99.78 41.08 123.5 58.18 253.53 65 382.88 3.43 9.94-2.42 24.44-14.51 23.73-29.33 1.71-59.22 3.45-88.71 5.23-4.4 6.31 4.09 6.73 8.54 6.63 28.89-1.33 58.86 2.37 86.8-6.16 1.54-9.42 16.7-7.36 13.77-19.45 0.32-4.59-1.12-14.85 6.23-13.81 5.77 10.43 0.62 48.41-23.16 42.88-23.21 6.78-48.48 0.37-71.21 7.74 1.14-9.12-26.35 4.29-17.2-3.04-14.8-4.88-30.58-1.78-45.33 1.79-25.23-0.59-50.5 1.6-75.72 3.78-21.01-6.15-42.67-3.03-63.93-6.85-4.88-4.03-7.33 7.13-11.4 1.31-9.46-1.13-20 1.99-29.86-0.78 0.24-5.84-9.34 2.61-13.36-1.66-14.87 3.34-31.57-15.23-24.71-28.3 5.94 13.58 21.7 21.91 36.89 19.34 9.77-1.5 18.14 8.28 28.09 2.2 23.7-1.59 47.36 6.58 71.64 4.54 26.96 6.37 56.49-2.42 84.33-0.7 10.83-2.88 22.09-3.45 33.21-4.59 0.19-2.91-2.35-7.12-6.22-4.23-54.88 1.29-109.54 0.78-164.43-1.89-14.29 3.91-31.57-6.59-44.14 1.95-3.4-10.76-16.69 2.28-22.7-7.44-10.5-3.88-6.62-16.78-11.72-24.38-5.13 0.57-0.57 13.01-6.41 11.53-8.15-13.95 0.38-31 2.66-45.86 2.74-32.21 7.48-65.92 12.03-98.65 11.3-86.18 14.61-175.18 20.37-262.02 0.27-39.05-5.41-88.36 1.47-129.13 12.67-25.59 46.97-24.49 70.34-16.24 36.02 9.69 61.69-23.58 95.35-27.31m2.43 23.73c-2.71 4.78-2.3 10.63 1.08 15.06 5.39-3.86 8.73-14.97-1.08-15.06m-10.81 2.02c-4.88 1.56-0.36 7.16 0.77 9.97 4.32-1.48 2.96-9.69-0.77-9.97m21.09 1.57c2.1 3.05 4.35 6.39 6.74 9.35 5.05-3.84-2.57-9.38-6.74-9.35m-30.91 2.76c-1.24 7.44 1.45 14.63 5.8 20.61 7.64-5.38-0.83-16.68-5.8-20.61m29.85 2.85c-1.98 7.65-6.51 16.18 0.86 22.6 6.44-4.69 7.5-19.56-0.86-22.6m-40.85 0.91c-6.89 1.58-0.76 9.74 1.83 12.66 5.89-0.86 3.86-14.36-1.83-12.66m54.84 3.91c-4.3 5.02-0.3 11.61 2.11 16.63 7.91-1.67 1.9-14.73-2.11-16.63m-26.9 1.99c-4.58 2.5-1.3 8.48 1.67 10.88 3.95-2.84 0.78-9.84-1.67-10.88m-45.91 4.07c-6.83 1.43 0.12 8.28 1.57 11.84 5.1-2.12 5.13-13.35-1.57-11.84m11.76 0.03c-2.4 5.06 0.93 11.52 4.83 14.71 4.01-4.42-0.39-13.52-4.83-14.71m-85.94 1.97c-12.14-3.23-0.31 12.43 1.72 3.06 2.12 3.01-2.29 13.03 2.93 15.75 4.02-4.65-0.02-10.67 0.56-15.66 8.82-2.81 5.51 9.86 11.53 12.7 1.8-3.55 4.86-9.32 1.6-12.49-6.47-0.23-13.19-1.1-18.34-3.36m100.04 1.09c-4.72 7.19 0.88 14.2 3.77 20.72 7.11-4.96 1.29-17.89-3.77-20.72m-122.12 3.72c-4.15 3.79-0.55 12.46 3.86 13.64 2.3-3.43-0.82-11.4-3.86-13.64m48.98 1.97c-0.75 9.53 8.7 0.11 0 0m11.18-0.17c-0.27 3.51 2.44 6.32 3.88 9.33 5.29-2.72 4.5-12.6-3.88-9.33m29.12 0.64c-4.66 6.06 0.96 13.55 4.59 18.5 4.88-6.21-1.7-15.21-4.59-18.5m74.62-0.35c-4.05 7.98-5.26 17.95 2.84 24.11 5.41-6.86 5.67-20.14-2.84-24.11m-26.96 0.92c-2 3.71-0.9 8.3 1.09 11.8 5.33-0.77 3.96-11.62-1.09-11.8m-123.87 1.2c-3.54 3.81-0.34 9.18 2.06 12.54 4.94-0.33 2.31-12.37-2.06-12.54m62.35-0.67c0.32 3.53 1.25 7.4 4.52 9.38 4.74-1.51 1.37-12.36-4.52-9.38m102.6 0.61c-5.66 7.86-0.56 16.86 3.83 23.81 8.81-6.29 2.91-18.95-3.83-23.81m-28.84 1.05c-2.89 3.49 0.72 13.61 5.34 11.88-0.18-4.07-1.3-11.66-5.34-11.88m-44.31 0.7c-5.59 5.91-1.23 13.94 2.95 19.06 5.15-6.08 1.6-14-2.95-19.06m-60.07 4.08c-1.83 5.23-4.39 12.53 0.03 16.73 4-3.21 6.12-13.86-0.03-16.73m26.28 0.18c-5.79 6.71-0.77 16.43 3.74 21.67 6.66-5.17 0.36-17.93-3.74-21.67m-14.03 0.99c-3.95 4.38-0.52 10.44 2.01 14.62 6.06-1.84 3-13.7-2.01-14.62m60.8 2.05c-2.25 4.13 1.16 12.1 5.05 14.55 3.47-3.61-1.06-12.93-5.05-14.55m-85.7 0.97c-2.77 3.51-3.02 8.61-1.16 12.63 6.79 1.11 5.42-11.79 1.16-12.63m52.72 2.88c-2.88 5.38 1.32 12.67 4.96 16.98 4.45-5.02-0.78-14.14-4.96-16.98m-88.55 1.23c-6.68 6.27-1.46 17.14-1.81 24.75 2.41-3.54 1.79-7.69 1.68-11.58 6.75-0.72 5.36-13.19 0.13-13.17m12.75-0.04c-4.19 3.53-0.37 9.29 1.94 12.79 4.15-2.25 0.4-11.66-1.94-12.79m123.04-0.02c-1.27 3.55-2.11 9.81 1.68 11.65 6.08-1.74 2.83-11.5-1.68-11.65m12.84-0.24c-4.67 5.56 0.38 12.12 3.05 17.23 5.1-5.3 1.48-13.86-3.05-17.23m-123.95 1.28c-4.47 10.03 4.64 3.27 0 0m151.96 1.87c-3.6 8.13-3.92 20.96 2.91 27.59 8.05-6.97 4.26-22.23-2.91-27.59m-15.18 0.87c-4.28 6.29 2.98 11.63 4.28 17.66 5.35-3.75-0.08-14.23-4.28-17.66m-58.81 2.17c-3.55 4.67 2.06 11.44 3.97 15.94 5.18-4.67 0.64-14.13-3.97-15.94m14.15 1.12c-4.4 6.26 0.19 15.23 4.7 19.38 5.89-5.07 1.27-16.98-4.7-19.38m-61 0.9c-3.53 5.89-4.26 15.12 2.68 18.67 2.98-5.79 4.53-17.02-2.68-18.67m12.98 2.23c-2.48 5.76 0.02 16.49 6.43 17.31 2.35-5.11-1.22-16.27-6.43-17.31m-25.92 1.85c-1.53 3.56-3.61 12.25 1.43 13.38-0.65-5.38 4.51-9.97-1.43-13.38m41.88 0.92c-5.84 5.72-1.29 15.17 3.72 19.82 6.15-5.82 0.93-16.22-3.72-19.82m-54.09 0.93c-2.89 3.43-2.25 10.61 2.33 12.11 0.54-3.94 2.5-10.68-2.33-12.11m113.05 0.99c-4.14 5.2-0.85 12.33 2.94 16.36 4.5-3.32 2.26-14.55-2.94-16.36m-13.28 0.99c-1.71 15.5 11.01 2.17 0 0m-122.78 1.11c-3.1 2.84 0.59 7.9 1.89 11.01 4.76-2.14 3.25-11.51-1.89-11.01m149.08 1.03c-3.06 6.64 1.74 13.76 4.08 18.51 7.24-3.05 1.72-17.68-4.08-18.51m-58.15 0.86c-1.96 4.47-0.19 10.67 3.26 13.75 7.25-1.03-0.6-11.67-3.26-13.75m13.08 5.07c-3.08 4.86 0.83 12.21 4.96 15.88 6.41-3.44-1.07-14.33-4.96-15.88m-47.04 0.87c-4.82 7.21-2.81 18.12 3.88 22.69 4.52-6.26 2.81-18.25-3.88-22.69m107.2 0.18c-4.83 4.6 1.35 12.9 4.02 17.38 3.59-3.14 0.53-16.36-4.02-17.38m15 0.98c-5.39 7.16-4.19 18.01 1.72 23.81 5.24-6.21 7.19-20.4-1.72-23.81m15.2 0.1c-6.91 9.13-0.45 21.24 5.44 28.4 10.45-7.27 3.63-24.58-5.44-28.4m-198.34 1.92c-2.56 4.05-2.2 9.89 1.91 12.55 4.69-2.53 2-11.43-1.91-12.55m46.13 0.05c-2.82 5.05-2.63 11.64 1.95 15.62 5.83-2.01 4.06-15.32-1.95-15.62m76.95-0.15c-4.49 3.38-1.04 10.48 1.92 13.93 3.28-3.5 4.7-13.52-1.92-13.93m-101.25 2.02c0.04 3.19 0.26 6.45 1.07 9.57 4.25-0.29 2.94-9.96-1.07-9.57m12.12-0.03c-2.66 2.1-0.43 7.24 0.36 10.32 5.42 2.36 4.77-11.49-0.36-10.32m41.24 1.1c-4.64 5.65 1.92 11.25 3.96 16.56 5.45-1.99 1.69-17.1-3.96-16.56m58.88 0.79c-0.04 4.22 2.48 8.03 4.19 11.79 5.84 0.59 2.08-14.5-4.19-11.79m-43.83 1.41c-3.95 6.34-1.31 12.99 2.67 18.64 5.94-4.18 3.66-17.27-2.67-18.64m58.61 0.53c-4.45 6.02 0.7 12.77 4.13 17.93 6.53-3.38 0.68-15.03-4.13-17.93m-45.06 4.04c-1.93 5.3 0.84 12.75 5.07 15.87 6.05-3.64-2.44-12.03-5.07-15.87m59.13 1.02c-2.61 6.67 0.48 14.81 5.1 19.91 5.28-4.55 1.32-17.95-5.1-19.91m-168.07 5.09c-0.17 4.74-3.01 13.61 0.88 16.79 3.98-3.34 6.79-16.26-0.88-16.79m23.24 0.1c-2.97 2.79-3.01 11.64 2.42 10.41 1.68-3.25 0.62-9.22-2.42-10.41m11.79-0.29c-3.32 3.29-2.4 12.27 2.98 11.74-0.19-3.78 0.3-9.69-2.98-11.74m88.31 0.29c-2.85 3.63-0.27 8.37 2.01 11.57 5.82-0.77 0.63-12.05-2.01-11.57m12.84-0.07c-4.52 5.34-0.73 13.29 3.02 18.11 4.47-5.2 2.63-15.72-3.02-18.11m-89.88 1.11c-2.56 4.75-0.52 10.1 2.04 14.38 5.97-2.08 2.93-13.98-2.04-14.38m13.77-0.12c-4.98 6.51-1.08 15.91 3.88 20.9 5.38-6.18 2.38-17.16-3.88-20.9m16.09-0.09c-4.55 7.3-2.59 16.1 2.03 22.83 7.22-5.08 4.14-18.05-2.03-22.83m121.19 0.22c-7.18 11.19-1.15 23.08 5.75 31.51 8.28-8.94 2.45-25.59-5.75-31.51m-185.09 0.7c-5.16 9.26 5.87 3.5 0 0m168.99 1.24c-2.93 5.71 2.48 10.41 4.21 15.49 5.72 0.17 1.45-16.44-4.21-15.49m-32.16 2.97c-0.67 5.72 2.58 10.82 5.05 15.68 5.5-2.99-0.44-15.38-5.05-15.68m-58.68 1.05c-3.04 4.72-0.24 11.24 2.83 15.49 6.26-2.9 2.53-14.27-2.83-15.49m14.6-0.06c-4.86 6.81-1.31 14.87 3.18 20.8 6.78-4.66 2.4-16.35-3.18-20.8m111.22-0.08c-7.87 11.6 2.38 25.25 7.77 34.72 5.04-9.71-2.63-26.98-7.77-34.72m-52.23 4.07c-3.74 6.57 0.82 13.13 4.16 18.85 7.32-3.96 1.11-15.96-4.16-18.85m-144.74 3c-2.64 2.88-3.62 10.59 1.63 10.71 1.72-3.18 1.58-9.84-1.63-10.71m99.97 0.06c-2.61 2.63-1.86 13.32 4.04 12.59 1.03-4.15 0.11-10.85-4.04-12.59m-89.03 1.09c-2.66 3.95-1.42 8.77 0.86 12.61 4.74-1.82 2.96-11.97-0.86-12.61m-22.04 0.65c-1.44 3.72-3.35 8.17-1.55 12 0.83-3.52 5.68-9.83 1.55-12m122.81 0.14c-3.73 4.65 0.29 15.54 5.61 15.58 2.44-4.93-1.4-12.55-5.61-15.58m47.36 0.4c-3.24 5.68-1.76 12.95 2.92 17.32 7.13-3.09 0.22-14.8-2.92-17.32m-136.17 0.78c-3.42 3.17 0.42 9.97 1.87 13.78 5.37-2.32 2.55-13.74-1.87-13.78m12.81 0.58c-3.87 5.91 0.21 19.6 7.28 19.79-1.01-6.02-1.04-15.25-7.28-19.79m90.19 1.44c-4 6.78-0.28 14.09 4.08 19.58 6.75-4.32 1.78-17.29-4.08-19.58m-75.15 1.69c-4.76 6.85-2.32 15.93 3.96 20.96 4.69-6.47 2.7-17.18-3.96-20.96m120.93 1.2c-1.75 8.19 3.75 17.7 8.14 23.64 4.87-6.58-2.94-18.92-8.14-23.64m-104.63 0.96c-5.34 5.5-3.24 15.46 2.04 20.31 3.14-4.64 6.23-18.21-2.04-20.31m11.94 1.11c-2.91 6.01 1.93 14.05 4.83 19.85 7.89-3.54 0.84-18.31-4.83-19.85m61.01 2.1c-3.03 6.8 2.89 12.52 6.09 17.97 2.98-6.22-1.71-15.82-6.09-17.97m51.01 0.89c-8.76 10.93 0.52 25.49 6.78 34.73 10.84-8.88-0.76-27.09-6.78-34.73m-95.25 0.81c-3.04 5.09-3.85 11.66 1.13 16.04 4.91-4.29 3.23-12.57-1.13-16.04m-100.84 1c-2.36 5.57-5 11.89-0.16 17.18 3.25-3.85 6.91-15.81 0.16-17.18m12.12 0.09c-3.75 3.62-1.92 9.29 0.71 13.06 5.21-2.65 2.46-11.71-0.71-13.06m100.28 0.51c-2.36 5.57 0.39 12.78 4.5 16.18 4.18-3.54 0.36-14.03-4.5-16.18m47.59 2.56c-2.35 5.5-0.94 12.22 2.99 16.66 5.05-3.81 1.23-14.97-2.99-16.66m-136.94 0.9c-3.18 4.67 1.17 9.84 2.9 14.14 4.06-3.84 2.77-13.86-2.9-14.14m13 1.14c-4.14 4.85 0.96 12.32 4.05 16.66 6.25-2.14-0.29-15.56-4.05-16.66m-47.88 1.97c-4.14 9.25 4.96 2.43 0 0m137.93 0.93c-3.05 5.31 1.43 11.14 4 15.58 7.21-1.2 0.63-15.91-4-15.58m46.87 0.09c-4.1 7.79 3.6 18.02 6.82 24.57 6.03-6.09-0.74-21.5-6.82-24.57m-122.19 1.59c-3.96 5.87-0.38 13.77 3.98 18.13 5.38-5.33 0.46-14.04-3.98-18.13m90.38 1.3c-3.94 5.49-0.76 15.73 4.69 19.78 6.16-4.97 0.63-16.62-4.69-19.78m-60.21 1.04c-5.47 6.44-1.73 17.32 2.88 22.66 5.7-5.76 4.03-18.31-2.88-22.66m-16 1.2c-3.18 6.68-0.77 12.85 2.91 18.74 5.68-4.54 4.59-17.69-2.91-18.74m149-0.2c-1.74 8.14 2.84 20.08 8.9 24.52-2.2-7.86-2.98-20.24-8.9-24.52m-207.11 1.8c-2.01 5.31-4.72 14.12 0.93 17.84 4.07-3.94 6.24-15.84-0.93-17.84m101.17 1.41c-3.37 6.03-1.86 14.96 3.82 18.48 5.39-4.49 1.86-16.36-3.82-18.48m-87.84 0.77c-4.62 2.68-2.03 11.63 1.69 13.75 4.71-3.18 1.38-11.97-1.69-13.75m74.89 0.01c-2.4 4.85-0.48 10.15 2.07 14.51 5.39-1.69 3.87-14.89-2.07-14.51m-100.1 2.07c-2.4 2.8-2.93 8.57 0.81 10.63 4.55-1.84 2.97-9.77-0.81-10.63m160.84-0.02c-2.81 4.06 0.44 12.96 5.11 14.58 1.96-4.84-0.79-12.88-5.11-14.58m34.03-0.11c-4.3 9.67 5.14 19.23 9.08 27.86 6.04-7.59-5.57-21.28-9.08-27.86m-158.84 1.17c-2.64 5.84 0.52 14.06 4.93 17.6 3.64-4.22 1.1-16.86-4.93-17.6m90.84 0.77c-1.74 5.77 0.62 14.63 5.65 17.65 3.96-5-1.72-14.32-5.65-17.65m46.39 3.38c-2.89 5.93 0.68 12.41 3.87 17.39 8.38 18.19 5.26-18.91-3.87-17.39m-123.09 1.83c-3.4 5.9 2.82 11.56 4.78 16.9 5.51-4.68 0.74-16.22-4.78-16.9m91.89 2.86c-5.42 5.25 1.68 12.22 4.07 17.47 5.13-3.95 0.97-15.12-4.07-17.47m72.98-0.21c-6.23 9.91-0.99 20.06 3.9 28.92 8.83-7.41 5.23-23.75-3.9-28.92m-194.98 2.3c-3.19 6.16-4.43 14.5 0.91 19.86 4.77-4.6 5.05-16.93-0.91-19.86m45.8-0.16c-5.28 4.2-0.49 13.02 2.97 17.15 3.65-4.63 2.39-14.46-2.97-17.15m13.45 1.01c-3.89 6.77-1.23 15.37 3.7 20.63 6.14-4.35 2.49-18.47-3.7-20.63m77.49-0.11c-3.25 6.02-2 15.15 3.19 18.94 5.92-3.72 0.86-14.75-3.19-18.94m-61.81 1.18c-3.77 5.67-3.77 14.71 1.94 18.63 4.45-4.13 5.56-16.77-1.94-18.63m12.84-0.11c-3.7 5.91 0.17 13.6 4.05 18 6.08-4.33 0.34-14.97-4.05-18m83.13 0.17c-6.33 9.7 3.64 22.17 8.89 29.62 6.48-8.4-3.45-23.06-8.89-29.62m-195.99 0.91c-0.94 3.4-2.43 11.21 2.81 11.61 0.64-3.65 2.3-11.37-2.81-11.61m11.81-0.15c-2.38 4.08-1.89 9.47 1.31 12.96 4.57-1.42 3.17-11.31-1.31-12.96m25.37 0.32c-3.21 6.4 1.14 13.2 3.79 18.9 7.13-4.89 0.68-16.75-3.79-18.9m90.71 0.76c-4.33 7.35-1.46 16.51 3.93 21.67 5.7-6.23 0.94-16.37-3.93-21.67m46.14 4.14c-1.65 6.97 2.53 18.59 8.53 20.56 2.45-6.72-3.75-16.74-8.53-20.56m-123.79 3.2c-2.64 5.68 1.55 11.87 4.9 16.34 6.25-3.16 1.05-16.52-4.9-16.34m91.89-0.13c-3.57 5.29 1.97 13.86 4.68 18.63 5.85-5.55-0.77-16.32-4.68-18.63m-77.08 3.95c-2.21 4.61-0.34 16.27 6.3 14.16 0.82-4.64-2.2-12.75-6.3-14.16m-70.99 1.09c-1.6 5.11-1.95 12.08 2.8 15.67 4.09-4.41 3.52-14.92-2.8-15.67m13.87 1.7c-2.41 3.32-3.06 9.9 0.97 11.99 4.61-2.2 1.85-9.57-0.97-11.99m25.19 0.16c-5 6.63-3.05 17.47 2.73 22.88 4.83-6.71 5.15-19.42-2.73-22.88m74.63-0.25c-4.54 7.63-1.83 17.09 3.1 22.89 5.98-5.54 4.1-18.37-3.1-22.89m-88.73 1.45c-1.95 4.96-0.75 10.17 2.02 14.61 6.48-1.87 2.89-13.93-2.02-14.61m59.85-0.06c-1.81 6.22 0.26 14.61 5.03 18.7 3.95-5.58 0.63-16.3-5.03-18.7m77.51-0.08c-3.34 5.21 1.54 11.61 3.8 16.47 6.03-2.98 1.73-15.69-3.8-16.47m34.71 0.01c-5.15 9.11 5.09 17.38 7.54 25.92 2.65 7.39 6.13-4.79 3.62-7.2-4.56-5.21-4.59-16.28-11.16-18.72m22.75-0.1c-2.4 7.34 3.7 13.45 6.35 19.72 6.48-3.01-1.22-16.9-6.35-19.72m-42.68 3.19c-5.64 7.86 3.23 16.66 4.92 24.62 8.74-6.82-1.41-18.69-4.92-24.62m61.02 0.06c-6.46 8.43-3.02 18.52 2.75 25.26 7.35-6.43 3.76-20.86-2.75-25.26m-185.01 0.86c-4.35 5.73-0.77 15.34 3.82 19.51 6.06-4.85-0.75-15.97-3.82-19.51m46.9-0.07c-3.3 4.95-1.6 10.65 0.85 15.6 6.18-2.66 5.72-14.3-0.85-15.6m27.96-0.06c-3.36 7.02 2.22 14.07 5.03 20.16 5.13-6.35 1.34-17.41-5.03-20.16m15.92 3.09c-4.51 6.82-1.33 15.74 4 20.61 5-5.03 2.04-17.13-4-20.61m-76.66 4.14c-4.57 5.59-0.04 12.61 2.65 17.86 6.33-4.11 0.08-15.49-2.65-17.86m90.74 2.92c-3.59 5.06 2.56 11.23 4.08 16.49 5.27-2.53 1.34-15.92-4.08-16.49m58.03-0.08c-4.56 7.7 1.55 17.07 5.84 22.63 6.21-5.39 0.39-19.78-5.84-22.63m-23.16 1.07c-3.35 8.43 5.55 17.27 8.55 25.14 2.33 4.16 4.46-2.42 2.61-4.54-3.22-6.82-5.98-16.1-11.16-20.6m-183.73 1.03c-3.46 3.83-2.17 10.09 0.85 14.01 3.32-3.81 4.99-12.95-0.85-14.01m11.92-0.11c-3.62 4.03-0.63 9.77 1.99 13.51 3.88-2.33 2.55-12.62-1.99-13.51m58.85-0.11c-2.17 6.43 2.25 12.83 5.15 18.22 3.66-5.62-0.02-14.86-5.15-18.22m-46.04 0.98c-4.73 6.02-0.86 13.55 3.07 18.95 5.75-4.39 1.05-15.09-3.07-18.95m14.04 1.94c-5.1 8.14-1.31 16.26 2.17 23.85 9.64-3.94 4.46-19.98-2.17-23.85m60.35 1.41c-4.2 6.24-1.18 14.99 3.56 19.41 6.68-3.83 0.96-18.05-3.56-19.41m14.58-0.3c-4.14 8.33-0.53 17.24 4.26 23.71 6.16-5.75 3.45-20.39-4.26-23.71m126.35 0.04c-4.16 8.11-7.39 18.36-0.22 25.91 8.27-5.89 5.75-20.61 0.22-25.91m-76.97 1.29c-3.94 6.61 3.89 13 5.95 19.3 6.52-2.11-2.18-19.73-5.95-19.3m-78.28 0.89c-0.41 4.48-0.49 9.61 3.1 12.89 4.42-1.89-0.02-8.5 4.93-9.24 0.89-4.96-3.11-0.08-8.03-3.65m44.3 2.11c-3.73 6.58 0.28 14.67 4.68 19.34 5.49-4 0.74-18.33-4.68-19.34m93.74-0.18c-3.97 5.81 2.18 12.7 5.25 17.42 3.8-3.47-0.64-15.11-5.25-17.42m-170.03 1.83c-2.81 5.75 0.44 13.61 3.94 17.73 5.14-4.08 1.86-15.9-3.94-17.73m92.23 3.03c-5.43 5.42-0.41 14.36 2.93 19.67 5.77-4.16 2.97-17.53-2.93-19.67m34.92 0.26c-5.95 9.98 4.69 21.05 8.91 29.95 6.93-9.39-4.21-24.83-8.91-29.95m22.99 0.85c-5.56 6.92 2.21 15.06 5.02 21.64 8.47-3.26-1.02-18.62-5.02-21.64m-195.01 1.02c-3.96 4.3-3.17 12.12 0.78 15.62 4.35-2.59 3.83-14.12-0.78-15.62m58.84-0.07c-4.31 6.11 1.13 12.73 2.97 18.16 7.79 0.01 1.73-16.47-2.97-18.16m-70.96 0.83c-3.2 4.13-3.57 10.29-0.91 14.82 5.11-1.69 5.97-12.2 0.91-14.82m24.16 1.3c-4.11 5.14-0.37 13.97 3.77 17.62 5.94-4.67-0.67-14.61-3.77-17.62m138.84 1.83c-3.15 8.34 4.4 15.38 7.02 22.72 7.93-5.73-1.41-19.19-7.02-22.72m60.18 1.91c-4.4 7.63 0.25 15.09 3.78 21.99 7.08-5.87 0.98-17.26-3.78-21.99m-185.02 1.18c-4.89 5.84 0.65 13.94 2.92 19.73 8.23-3.46 0.05-16.32-2.92-19.73m46.96 0.01c-2.72 2.89 0.66 8.2 2.02 11.51 5.2-0.8 2.19-12.32-2.02-11.51m11.99 0c-1.68 5.83-0.3 14.84 5.53 17.9 4-4.1 1.35-17.27-5.53-17.9m-43.77 2.08c-5.08 6.58-3.62 17.28 1.69 22.57 7.4-4.69 3.29-18.74-1.69-22.57m59.92 0.92c-5.37 5.33-2.13 16.79 3.65 20.81 6.14-4.75 1.73-17.72-3.65-20.81m15.04 1.03c-4.71 7.17-1.41 17.28 3.61 22.57 8.16-5.23 3.59-20.04-3.61-22.57m15.83 2.96c-4.99 5.69 0 14.06 2.92 19.81 6.24-4.35 2.03-16.18-2.92-19.81m92.78 0.07c-2.97 3.72-0.41 14.29 4.9 14.56 1.98-4.58-0.24-13.12-4.9-14.56m-170.78 1c-3.14 4.92 0.57 15.08 4.85 18.55 7.18-4.66-0.65-16.1-4.85-18.55m113.02-0.04c-4.56 8.48 6.13 19.42 9.84 26.66 4.24-7.92-5.85-21.45-9.84-26.66m22.93-0.05c-3.03 6.46 4.95 12.17 6.21 18.42 6.28-2.69-1.21-16.64-6.21-18.42m48.79-0.2c-4.77 9.23 1.16 21.73 8.8 26.81-3.57-8.3-1.91-21.51-8.8-26.81m-258.05 2.1c-0.32 6.02-4.73 15.18 1.06 18.99 4.51-5.27 5.33-15.44-1.06-18.99m13.27 0c-2.66 5.68-2.71 11.73 0.97 16.91 4.9-3.34 6.09-15.8-0.97-16.91m12.82 0.03c-3.66 6.67-0.68 14.89 3.87 19.86 5.15-5.76 2.46-16.62-3.87-19.86m140.35 1.19c-5.9 8.51 2.21 18.26 6.44 25.6 6.52-7.63-0.05-21.59-6.44-25.6m-78.08 2.81c-4.34 3.23-1.53 10.24 0.8 13.89 6.33-0.79 3.82-13.03-0.8-13.89m-48.02 1.12c-4.54 6.48 0.91 13.84 4.04 19.6 6.54-2.67-0.04-17.59-4.04-19.6m59.78 0.88c-2.75 5.54 1.26 13.41 5 16.61 3.57-4.42-0.13-14.62-5-16.61m125.11 0.08c-2.82 7 0.82 14.53 5.02 20.09 5.33-5.25 1.17-18.29-5.02-20.09m-109.98 3.91c-4.6 5.78-0.2 14.79 3.87 18.88 7.02-3.61-0.68-15.83-3.87-18.88m124.93 1c-3.55 6.12-1.2 12.84 2.99 17.92 6.61-4.31 2.28-15.17-2.99-17.92m-185.99 1.09c-3.29 4.87 0.12 12.47 3.11 17.11 6.11-3.58 2.46-15.87-3.11-17.11m14.94-0.12c-6.19 7.71-1.94 17.21 3.03 23.8 6.65-4.87 4.14-19.66-3.03-23.8m113.14 0.18c-3.03 9.38 4.8 18.12 8.01 26.58 5.12 3.99 5.17-6.08 2.74-8.73-4.47-5.15-4.13-15.99-10.75-17.85m24.05-0.08c-5.04 6.92 0.34 15.07 4.72 20.85 5.78-5.96 0.27-17.32-4.72-20.85m-76.07 1.01c-4.64 7.12-2.14 16.85 3.72 21.68 7.36-5.88 1.32-17.36-3.72-21.68m15.84 0.79c-5.06 7.46-3.33 16.18 2.1 22.96 8.05-5.05 4.16-18.24-2.1-22.96m107.15 2.33c-3.08 5.73 3.03 12.79 4.92 18.52 5.8-4.6-1.61-16.28-4.92-18.52m-231.94 0.97c-3.42 6.62-1.09 15.17 2.77 20.46 5.95-4.22 4-18.35-2.77-20.46m140.28 0.23c-5.41 9.01 1.31 19.18 6.36 26.47 7.71-8.2-3.03-21.33-6.36-26.47m-153.26 1.66c-2.53 5.35-4.48 11.71 0.1 16.74 6.56-0.33 5.44-16.08-0.1-16.74m75.17 0.3c-3.56 3.94-0.52 9.93 1.71 13.86 6.6-2-0.18-14.41-1.71-13.86m-47.95 1.81c-5.34 5.79-0.12 15.2 3.86 20.38 6.37-3.82 2.11-18.42-3.86-20.38m59.65-0.06c-2.04 5.99 0.52 13.8 4.94 17.74 5.6-4.28-0.46-15.8-4.94-17.74m126.13 1.16c-2.82 6.37 3.55 11.47 4.97 17.39 5.49-3.91-0.58-16.27-4.97-17.39m-175.86 4.46c5.4 1.72 1.72 12.63 7.72 17.4 5.54-5.44 0.97-19.51-7.72-17.4m64.82 0.41c-5.48 5.19 3.24 12.07 4.03 17.62 6.63-2.72-0.78-14.9-4.03-17.62m125.84-0.14c-3.44 5.43-1.41 12.97 2.98 16.65 5.71-3.16 1.91-14.48-2.98-16.65m-57.78 1.04c-3.19 10.12 3.57 22.31 8.63 29.79 6.96-8.36-2.03-25.17-8.63-29.79m22.84 1.1c-2.98 6.7 2.2 12.31 5.18 17.82 6.48-2.83 0.06-16.7-5.18-17.82m48.31 1.16c-5.21 7.52 1.88 14.89 3.62 22.38 8.38-4.38 1.07-19.87-3.62-22.38m-186.39 0.7c-4.59 6.32 1.04 14.33 5.11 18.62 3.79-4.75-0.03-15.21-5.11-18.62m61.97-0.26c-4.06 6.24-0.53 15.23 4.05 20.24 6.53-4.91 0.67-15.76-4.05-20.24m14.38 2.61c-4.48 7.61-0.65 15.14 3.81 21.63 7.45-5.04 1.37-19.34-3.81-21.63m-60.12 0.73c-4.26 4.5-4.4 14.28 0.78 17.9 4.7-4.23 4.71-14.98-0.78-17.9m76.96 0.15c-7.04 11.04 0.45 21.27 5.66 30.99 8.69-9.99 0.52-23.89-5.66-30.99m-139.99 1.89c-4.85 6.1-3.02 16.47 1.77 21.58 5.63-5.09 4.25-17.87-1.77-21.58m201.07 0.06c-4.99 5.91 1.01 13.3 3.88 18.77 8.26-3.82-0.29-16.59-3.88-18.77m-187.11 0.81c-5.36 8.28-0.87 16.69 3.92 24.1 6.47-7.28 2.67-19.69-3.92-24.1m60.87 0.09c-2.53 4.62 0.36 13.69 4.8 16.77 4.19-4.11-1.14-14.42-4.8-16.77m-87.69 1.09c-4.19 5.07-5.73 12.96 0.61 16.77 3.7-4.86 3.73-14.51-0.61-16.77m259.72 0c-2.63 7.94 4.55 14.78 7.13 21.71 11.39-2.38-5.24-16.52-7.13-21.71m-157.83 4.07c-4.31 5.85 1.64 12.68 2.27 18.37 9.94 2.11 1.89-16.33-2.27-18.37m-59.84 0.88c-4.63 5.37-1.08 14.32 2.61 18.58 5.46-3.63 2.18-17.27-2.61-18.58m151.72-0.03c-3.28 5.99 1.66 15.05 5.87 19.82 3.86-5.95-0.73-17.16-5.87-19.82m34.28 0.17c-2.91 4.8 0.99 11.4 3.88 15.52 5.9-2.42-0.34-14.9-3.88-15.52m-58.2 1.97c-2.85 10.51 4.44 21.4 9.81 29.69 3.12-8.85-1.18-26.14-9.81-29.69m-114.13 0.69c-3.89 6.06 0.14 14.2 3.97 18.98 6.73-4.7-1.78-14.35-3.97-18.98m186.11 0.4c-4.58 7.06 0.23 17.04 5.75 21.45 5.04-7.01-2.22-17.53-5.75-21.45m-126.08 2.76c-0.15 5.3 2.03 12.29 5.85 15.73 4.75-4.77-0.5-15.19-5.85-15.73m-32.02 1.8c-4.24 6.89-3.53 16.94 2.87 22.01 6.5-6.85 1.84-15.64-2.87-22.01m47.38 0.52c-2.15 6.58-1.11 14.14 3.69 19.47 6.47-4.79 1.83-15.57-3.69-19.47m125.81 0.69c-5.73 7.48 1.14 19.52 6.62 24.6 5.08-7.71-3.16-19.11-6.62-24.6m-186.92 0.95c-5.32 6.55 4.58 8.15 0.86 12.79 6 3.82 1.94-13.27-0.86-12.79m139.8-0.05c-5.02 5.25 2.41 11.91 4.04 16.98 6.12-3.66-1.26-14.03-4.04-16.98m-216.95 1.23c0.24 6.62-3.25 14.73 0.84 20.81 4.71-5.59 7.16-18.48-0.84-20.81m13.01 0.94c-3.33 6.95-1.44 15.4 3.75 20.8 4.64-5.99 4.08-19.79-3.75-20.8m16.01 0.82c-5.51 7.02-3.15 18.4 2.97 23.83 6.77-4.59 3.11-19.83-2.97-23.83m125.13 0.27c-5.28 9 1.22 19.46 6.59 26.73 6.43-8.54-0.89-22.07-6.59-26.73m-50.24 1.81c-3.56 6.61 3.97 12.53 5.4 18.26 5.06-4.65-0.37-16.21-5.4-18.26m93.13-0.02c-4.56 6.61-0.77 16.79 3.85 21.75 7.98-3.9 1.31-18.95-3.85-21.75m34.1 0.22c-3.03 5.63 0.27 11.21 2.93 16.26 6.42-1.74 3.35-17.57-2.93-16.26m-187.14 1.74c-3.94 5.95-2.37 15.03 2.83 19.88 4.63-5.87 4.21-17.27-2.83-19.88m14.07 2.12c-5.16 5.77-0.95 16.36 3.62 21.89 6.38-5.88 1.07-18.47-3.62-21.89m114.69-0.4c-5.08 12.07 0.58 25.84 8.12 34.08 8.73-9.22-0.16-25.76-8.12-34.08m71.34 0.51c-3.75 6.43 3.42 11.9 4.65 17.81 9.3 0.93-1.06-17.36-4.65-17.81m-124.03 1.82c-4.82 4.98-0.02 13.96 3.83 17.67 4.76-3.89-1.24-15.03-3.83-17.67m158.9 1.02c-4.32 6.68 7.41 7.8 0 0m-66.22 1.05c-4.01 6.18 0.91 13.46 4.15 18.83 5.98-4.58-0.06-14.89-4.15-18.83m-140.63 2.09c-3.05 4.24-0.11 9.57 1.82 13.64 6.93-1.79 1.61-13.04-1.82-13.64m62.14 0c-5.1 4.73 0.94 12.04 3.77 16.38 6.31-2.56-2.83-13.98-3.77-16.38m124.76-0.15c-5.39 8.08 2.24 18.1 6.75 23.7 6.85-6.29-2.66-19.44-6.75-23.7m-174.17 2.98c-1.54 4.54 0.03 15.36 5.64 15.56 2.32-5.18-1.33-13.36-5.64-15.56m-75.92 2.09c-5.39 6.43-4.03 16.28 1.04 22.4 5.39-5.01 6.19-18.39-1.04-22.4m91.19 0.07c-4.81 6.65-0.71 15.74 3.79 21.65 7.31-4.76 1-20.62-3.79-21.65m-77.43 1.58c-5.05 7.36-1.6 17.06 3.08 23 7.11-5.17 3.12-18.21-3.08-23m126.29 0.2c-5.44 7.38 2.76 15.64 5.11 22.74 9.59-3.07 1.07-19.8-5.11-22.74m76.93 0.16c-0.17 3.87 0.99 14.79 6.53 13.17-0.33-4-0.51-14.08-6.53-13.17m-33.88 0.93c-6.04 6.48 0.88 16.1 3.85 22.59 6.58-5.56 3.22-19.56-3.85-22.59m48.09 1.17c-4.46 7.22 1.44 15.42 5.73 20.66 6.04-5.01 0.68-19.32-5.73-20.66m-201.11 0.74c-5.42 6.39-4.64 16.66 1.76 21.85 5.28-6.27 4.3-17.06-1.76-21.85m235.84 0.06c-4.5 7.85 3.86 16.16 6.91 23.08 11.88-6.86-3.41-17.05-6.91-23.08m-221.78 1.13c-5.59 6.62-1.82 16.59 2.86 22.62 6.94-4.25 2.51-19.58-2.86-22.62m61.85 0.94c-3.76 5.3 1.48 12.9 4.91 16.67 4.25-4.51-2.2-13.47-4.91-16.67m52.43 1.28c-5.67 11.63 2.63 23.06 8.41 32.77 6.99-10.87-2.8-23.61-8.41-32.77m40.69 0.76c-4.77 6.61-0.26 15.65 3.99 21.62 6.75-4.88 1.78-19.01-3.99-21.62m-141.01 1.84c-3.2 5.62-2.26 12.08 1.78 17.11 5.89-3.38 4.61-16.31-1.78-17.11m62.03 0.17c-4.11 4.56-1.02 11.07 3.11 14.59 8.91-0.56-2.74-12.54-3.11-14.59m-49.2 0.97c-1.86 5.85 1.03 14.29 5.7 17.45 3.66-4.95-1.6-15.03-5.7-17.45m175.17 0.01c-1.69 6.18 1.79 16.89 6.94 21.58 4.23-5.58-2.58-18.09-6.94-21.58m-32.24 3.89c-2.46 5.33 0.76 11.05 3.07 15.8 6.08-2.41 2.35-14.62-3.07-15.8m-78.89 2.16c-2.23 7.13 3.18 15.64 7.8 20.62 3.78-6.44-3.05-17.07-7.8-20.62m-50.02 0.91c0.4 5.08 1.51 16.47 7.73 16.49-0.59-5.11-1.74-16.06-7.73-16.49m-90.9 1.01c-3.9 7.45-5.1 17.5 0.81 23.6 5.06-5.73 6.49-19.21-0.81-23.6m14.78-0.3c-5.76 7.9-3.57 18.89 2.83 25.02 6.37-7.42 3.88-19-2.83-25.02m218.11 0.19c-2.11 6.38 1.82 14.27 5.88 18.76 4.78-4.91-2.56-15.6-5.88-18.76m-126.2 0.89c-4.53 6.91 0.01 15.43 3.99 20.78 6.67-3.76 0.95-17.6-3.99-20.78m77.25-0.01c-3.69 8.14-2.61 17.79 3 24.85 7.62-5.83 5.03-20.79-3-24.85m83.88 0.14c-5.18 8.01 3.51 16.31 5.99 23.69 8.25-6.24-1.53-18.62-5.99-23.69m-237.82 3.01c-5.58 5.25-3 16.07 1.7 20.85 6.47-4.67 3.16-17.17-1.7-20.85m14.14 1.21c-5.27 7.66-2.95 18.86 3.6 24.43 4.41-6.17 3.9-21.73-3.6-24.43m203.79-0.1c-5.56 9.11 3.42 18.23 7.14 26.16 4.79-8.65-0.6-21.32-7.14-26.16m-188.13 1.49c-5.41 5.02-3.09 14.63 0.92 18.84 4.86-4.93 4.25-13.87-0.92-18.84m141.08 0.59c-6.21 5.97-0.68 15.52 3.72 20.66 5.2-5.88 2.02-17.39-3.72-20.66m-79.57 0.29c-2.78 5.39 1.52 11.83 5.4 15.1 1.58-5.06-1.58-11.73-5.4-15.1m-49.4 1.5c-3.79 6.47-0.75 14.95 3.9 19.83 7.32-3.07 2.65-18.59-3.9-19.83m86.98 0.06c-5.34 9.71 5.16 19.44 8.76 27.92 6.17-8.65-3.55-21.93-8.76-27.92m57.06 1.99c-3.18 5.92-2.47 15.32 3.65 18.68 3.23-5.44 2.45-16.44-3.65-18.68m-129.19 2.01c-3.86 6.45 3.59 12.38 5.19 18.59 6.06-3.63-2.16-15.35-5.19-18.59m50 1.96c-4.84 13.18 8.44 4.49 0 0m93.19 0.07c-4.78 5.83 0.69 15.14 4.81 19.47 4.67-5.31-1.5-15.98-4.81-19.47m33.92 1.09c-2.62 6.21 2.4 17.63 6.91 22.57 4.34-5.26-3.04-19.28-6.91-22.57m20.3-0.82c-1.94 8.05 5.31 6 0 0m-292.47 3.61c-2.54 7.96-2.71 17.29 3.91 22.69 4.67-6.92 2.8-18.26-3.91-22.69m16.3 2.03c-4.87 7.95-3.21 17.53 1.83 25.02 7.78-5.22 7.31-22.37-1.83-25.02m93.96 0.17c-2.16 3.99 1.71 12.3 5.79 13.36-0.56-4.47-2.33-11.64-5.79-13.36m-77.84 0.93c-5.42 6.85-3.03 15.6 0.83 22.58 8.42-3.48 5.74-19.71-0.83-22.58m155.68-0.29c-5.39 6.24-2.05 16.24 2.93 20.86 6.11-5.58 0.8-15.7-2.93-20.86m-62.86 1.18c-5.69 3.79 2.19 11.4-1.82 15.3-9.87 1.2-0.45 14.46-9.62 17.44 1.87 16.09 12.56 30.6 18.25 46 0.56 4.81 7.26-1.79 7.92 3.08-4.7 10.52 2.88 20.86 7.25 30.13 8.24-3.87-2.55-12.56-0.88-18.94 4.13-1.8 5.88 9.01 7.88 2.02 5.27-11.33 9.86 7.61 13.74 10.78 6.63-4.88 2.19-13.59-0.44-19.67-2.18-8.51 4.38-2.4 5.74 0.77 5.53 0.31-0.02-9.52 5.46-9.03 5.81 3.69 5.02 14.34 11.2 16.81 3.7-8.76-3.35-17.09-6.1-24.96-3.74-1.84-0.75-6.45 2.74-4.77 3.42 3.39 2.18 9.39 5.5 12.98 4.16-1.93 3.14-7.98 0.95-11.08-5.06-12.08-8.06-28.83-19.76-35.53 2.53-9.76-5.14-18.02-8.21-26.59-8.43-3.2 2.58 11.11-5.33 9.77-6.93-0.39-9.83-4.13-13.76 1.04 0.97-5.55-3.52-12.03-9.14-7.66-8.06 3.88-6.77-7.54-11.57-7.89m-79.08 0.95c-3.84 7.57-1.1 16.26 2.94 23.14 7.37-5.02 4.69-20.45-2.94-23.14m206.08 0.24c-3.42 5.52 2.89 13.49 6.06 18.6 6.45-2.79-2.28-17.33-6.06-18.6m-176.93 0.89c-4.31 7.44-0.43 16.8 3.66 22.65 6.71-5.19 2.96-19.84-3.66-22.65m127.86-0.11c-4.86 8.03-1.04 17.53 3.85 23.71 5.52-5.66 4.91-21.38-3.85-23.71m-141.9 1.14c-2.76 6.09-3.81 15.39 1.8 19.69 4.81-4.13 5.53-18.18-1.8-19.69m158 3.04c-5.02 5.79-0.38 13.45 2.97 18.89 5.91-4.68 2.69-17.11-2.97-18.89m68.82-0.07c-1.21 8.59 4.36 15.78 8.13 22.9 6.39-8.41-2.19-19.34-8.13-22.9m-197.57 1.29c-5.29 6.54-0.12 15.5 3.7 21.36 8.2-2.55 2.04-19.93-3.7-21.36m177.9-0.21c-5.68 8.41 1.85 19.03 6.64 25.69 7.42-7.42-2.85-20.73-6.64-25.69m-36.27 0.93c-2.72 7.63 1.25 15.28 5.07 21.49 7.04-3.56 2.56-20.7-5.07-21.49m-127.2 4.99c-2.19 5.54 2.17 10.61 5.14 14.83 5.3-3.42 0.25-13.78-5.14-14.83m143.17 0.97c-3.99 7.08 3.59 14.53 5.16 21.65 5.12 1.35 1.79-8.72 8.11-5.24-8.46-0.85-6.34-14.52-13.27-16.41m-222.08 3.91c-4.97 8.53-4.45 18.03 0.94 26.09 7.28-6.43 7.47-20.65-0.94-26.09m156.94-0.26c-4.65 6.37 0.11 14.1 3.16 20.08 7.19-3.84 2-15.8-3.16-20.08m-172.69 1.44c-5.54 6.48-1.96 15.62 2.79 21.77 6.61-5.39 2.42-18.55-2.79-21.77m30.96-0.03c-5.4 6.3-3.12 19.35 2.74 24.62 6.95-6.37 4.27-20.27-2.74-24.62m28.04 0.96c-5.19 8.12-2.26 18.61 3.69 24.7 8.66-5.75 1.95-20.86-3.69-24.7m215.06 1.05c-2.61 7.63 4.41 15.17 7.86 21.71 3.57-4.96-2.3-19.9-7.86-21.71m-286.32 1.88c-2.25 4.7-1.16 10.63-1.9 15.84 4.56-1.96 7.24-14.3 1.9-15.84m58.23 0.07c-4.75 5.97-2.58 13.47 0.92 19.6 4.81-4.08 6.56-17.39-0.92-19.6m141.9-0.02c-6.18 7.78 0.6 14.6 2.92 21.99 7.19-4.44 2.44-18.82-2.92-21.99m-112.82 0.92c-4.42 7.24-1 18.3 3.98 23.54 6.84-5.17 2.91-20.69-3.98-23.54m128.83 0.15c-4 6.65-3.58 15.87 2.02 21.71 6.37-4.69 5.19-18.59-2.02-21.71m48.88 0.1c-1.99 8.63 5.93 15.36 7.8 23.79 5.33-6.99-1.78-20.14-7.8-23.79m-34.77 1.05c-4.72 7.63 0.58 16.4 4.78 22.29 5.35-5.53 1.71-19.48-4.78-22.29m-128.03 3.72c-4.17 6.5-0.24 14.03 3.05 19.74 8.67-1.87 2.87-18.22-3.05-19.74m143.95 0.21c-4.48 8.25-0.13 18.75 5.85 24.38 5.99-6.63 0.14-20.32-5.85-24.38m36.88 4.76c-5.46 8.82 3.28 16.75 5.95 24.83 8.26-6.98-1.57-19.03-5.95-24.83m-276.1 3.78c-5.8 7.94-3.43 17.88 2.13 25.17 5.43-6.56 4.71-19.38-2.13-25.17m255.02 0.34c-3.05 8.28 2.64 17.65 6.98 23.58 7.09-6.01-2.4-18.87-6.98-23.58m-224.94 1.1c-6.31 7.92-3.03 18.92 1.93 26.6 6.93-6.12 6.52-21.91-1.93-26.6m16.17 0.9c-4.64 6.22-5.47 16.44 0.7 21.65 5.34-4.69 5.22-18.12-0.7-21.65m12.73-0.35c-6.11 7.43-1.16 18.09 4.11 23.92 5.43-5.8 2.73-19.2-4.11-23.92m-44.71 1.34c-3.17 6.81-1.32 14.21 1.91 20.62 7.23-2.79 4.91-19.46-1.91-20.62m59.94 2.1c-2.73 7.92-2.3 17.88 3.93 23.59 8.44-4.54 3.23-20.99-3.93-23.59m114.1-0.07c-6.86 4.75 1.15 13.03 2.87 18.68 7.22-2.23 3.11-17.09-2.87-18.68m29.98 1.1c-3.49 8.37-2.38 18.08 3.95 24.95 7.54-6.22 4.36-21.79-3.95-24.95m-15.12 0.9c-3.02 6.9-2.47 14.76 3.81 19.99 5.43-5.72 2.03-17.32-3.81-19.99m-113.08 0.9c-5.93 7.65 0.24 14.66 3.22 21.5 7.45-4.36 3.93-18.61-3.22-21.5m200.81 0.19c0.02 6.91 3.47 16.11 8.83 19.51-0.32-7.61 0.07-18.14-8.83-19.51m-56.61 1.79c-6.46 7.57 1 17.8 5.73 23.69 7.73-6.29-0.11-20.07-5.73-23.69m-129.01 0.95c-5.16 7.97-0.51 19.32 5.76 25 6.47-7.14-0.11-20.32-5.76-25m166.94 2.17c-4.25 6.93 3.16 15.69 6.82 21.79 5.45-7.13-3.94-16.54-6.82-21.79m-21.12 2.95c-6.17 8.57 1.65 18.25 6.12 25.8 7.53-6.72-0.47-20.67-6.12-25.8m-257.03 3.93c-5.62 7.94-3.19 17.58 2.02 24.98 5.76-6.65 4.21-19.15-2.02-24.98m60.11 0.08c-7.5 8.32-2.46 18.34 2.85 25.76 7.14-6.36 2.94-20.83-2.85-25.76m-45.22 0.78c-4.81 7.21-4.67 18.57 2.05 23.87 5.48-6.06 5.14-18.68-2.05-23.87m279.45 0.33c-5.5 7.39 1.95 16.52 5.66 22.65 7.08-6.15-2.19-18.87-5.66-22.65m-249.08 0.87c-3.66 7.33-4.65 16.99 0.94 23.43 4.63-5.59 7.99-19.61-0.94-23.43m-16.23 1.01c-5.24 7.41-1.16 16.86 3.98 22.62 5.15-5.36 3.48-19.11-3.98-22.62m45.19 2.13c-4.61 7.6 0.01 15.79 3.92 22.53 8.74-4.36 3.19-20.23-3.92-22.53m129.94 0.84c-4.76 5.1-0.39 14.75 3.77 18.9 5.13-5.17 2.13-16.72-3.77-18.9m-112.99 1.02c-4.88 6.76-2.57 16.12 1.83 22.82 6.39-5.38 5.52-19.64-1.83-22.82m127.97-0.01c-5.58 7.41-1.44 17.42 4.78 22.88 5.45-7.11 1.24-18.54-4.78-22.88m54.08 0.05c-3.04 7.86 3.21 16.06 7.02 22.67 6.5-4.16-1.17-20.7-7.02-22.67m-168.03 0.99c-4 9.12 0.73 19.49 5.77 26.44 7.2-7.24 1.22-21.86-5.77-26.44m129.92-0.11c-5.4 8.89-1.89 20.8 5.77 26.87 6.42-8.37 1.11-21.58-5.77-26.87m16.83 4.88c-4.41 8.31-0.14 18.83 6.08 25.01 8.38-7.14-1.37-19.08-6.08-25.01m-128.89 2.9c-4.69 9.5 0.44 19.7 5.07 27.92 8.49-6.99 0.54-22.59-5.07-27.92m-130.92 2.38c-2.96 8.79-2.78 21.14 3.82 27.59 7.12-7.33 2.71-22.07-3.82-27.59m297.11 0.08c-2.13 6.68 2.8 14.72 6.92 19.35 5.31-4.03-1.77-18.02-6.92-19.35m-235.96 2.81c-5.15 8.38-3.81 20.81 3.78 26.79 5.6-6.57 5.09-23.44-3.78-26.79m-44.46 0.68c-3.51 6.93-3.73 16.85 2.06 22.05 5.82-5.29 4.69-17.5-2.06-22.05m15.3 0.34c-6.97 7.56-2.8 17.48 1.88 24.88 6.85-5.98 5.52-20.84-1.88-24.88m245.14 0.12c-3.61 8.8 1.64 17.88 5.9 25.43 7.5-5.86 0.35-22.02-5.9-25.43m-199.95 0.97c-5.46 8.07-1.7 18.18 3.57 24.57 6.89-5.85 3.7-21.69-3.57-24.57m129.84 0.11c-2.34 5.44-0.26 13.73 4.66 16.38 3.2-4.94 1.05-15.16-4.66-16.38m-160.16 0.7c-3.61 6.27-3.99 15.21 1.93 19.76 5.34-4.64 4.08-15.93-1.93-19.76m266.08 0.08c-3.84 6.39-0.76 13.72 4.42 18.36 0.43-5.95 1.34-15.96-4.42-18.36m-91.83 2.16c-3.19 6.8 1.3 13.44 4.05 19.49 9-0.71 1.99-19.51-4.05-19.49m-127.98 1.93c-5.37 5.31-2.18 14.96 2.73 19.77 7.21-4.66 2.16-17.44-2.73-19.77m15.04-0.01c-6.14 8.48-0.98 20.06 4.59 26.62 7.62-6.77 1.4-22.36-4.59-26.62m129.67 1.84c-6.89 6.56 0.95 18.23 5.1 23.81 7.33-4.86 2.24-19.95-5.1-23.81m17.24 2.13c-5.88 9.19-1.03 21.68 5.82 28.56 7.37-7.88 0.47-22.37-5.82-28.56m38.92 0c-5.12 6.89 2.17 16.34 5.81 21.61 6.44-5.04-0.01-18.89-5.81-21.61m-106.13 2.03c-2.47 6.56 2.4 13.89 5.84 18.7 4.75-5.42-1.63-15.44-5.84-18.7m-62.06 0.77c-7.16 9.32 0.86 20.13 5.87 28.08 7.11-8.59 0.36-21.33-5.87-28.08m76.26 5.32c-3.08 6.22 1.17 12.14 3.73 17.64 5.5-3.37 2.13-17.37-3.73-17.64m69.99 0.84c-3.81 8.72 2.66 16.99 6.07 24.61 6.87-4.43 1.53-22.76-6.07-24.61m36.86 0.13c-2.34 4.48 1.29 18.27 7.52 18.12-0.12-5.8-3.37-15.49-7.52-18.12m-298.11 0.77c-4.24 6.54-3.83 17.86 1.05 23.72 5.19-5.76 6.51-18.67-1.05-23.72m15.17 0.27c-7.01 7.44-1.9 16.42 1.95 23.81 7.51-5.2 4.22-19.56-1.95-23.81m28.3-0.76c-3.08 8.63-1.66 18.87 4.6 25.34 7.23-5.67 2.37-20.14-4.6-25.34m-13.44 1.36c-4.28 7.16-3.29 17.16 1.88 23.11 4.34-6.66 6.71-19.54-1.88-23.11m102.25 0.37c-5.34 11.55 2.09 24.2 7.84 33.6 8.06-9.32-0.74-27.01-7.84-33.6m-71.85 1.16c-3.99 8.29-4.17 18.71 2.6 25.64 7.67-6.32 6.61-22.97-2.6-25.64m94.72-0.2c-0.67 6.95 3.26 15.09 7.68 19.57 3.11-5.52-1.59-18.53-7.68-19.57m51.26 0.16c-4.64 5.58 1.46 12.34 3.89 17.36 8.12-2.22-1.19-15.76-3.89-17.36m-220.4 0.85c0.89 5.95-6.37 17.52 1.94 19.66 3.5-5.87 4.37-16.98-1.94-19.66m90.18 0.89c-4.49 7.64-2 16.13 2.87 23.02 5.85-6.27 4.76-19.98-2.87-23.02m203.06 1.08c-6.25 7.89 0.48 17.73 4.88 24.4 7.13-6.11 0.96-20.31-4.88-24.4m-188.04 1.01c-4.35 8.67-0.21 18.37 4.86 25.75 7.78-6.6 1.1-21.13-4.86-25.75m130.21 0.3c-5.4 8.12 2.23 16.2 5.84 23.1 7.18-5.19-0.43-20.26-5.84-23.1m-48.2 0.71c-3.6 7.67-1.16 16.61 3.76 22.7 7.82-5.27 1.77-19.4-3.76-22.7m65.14 3.94c-5.34 8.86 1.46 19.03 5.89 26.67 8.24-5.71-0.29-22.48-5.89-26.67m-130.07 1.97c-5.4 9.76 1.28 20.8 5.78 28.69 8.25-6.91 2.4-24.79-5.78-28.69m185.7-0.02c-4.33 7.6 1.92 14.96 6.06 20.88 6.24-5.23-0.73-17.73-6.06-20.88m-142.84 4.05c-2.94 7.49 3.44 14.19 6.03 20.78 6.19-4.73-0.62-18-6.03-20.78m36.64-0.25c-2.18 4.85 1.63 9.97 3.33 14.35 4.4-3.55 0.76-11.81-3.33-14.35m69.44 0.23c-6.56 9.01 0.05 19.62 4.83 27.92 8.25-7.71 2.44-22.93-4.83-27.92m-218.85 2.21c-6.73 8.27-2.59 20.8 3.62 27.62 7.39-7.23 4.5-23.46-3.62-27.62m89.71-0.6c-7.88 11.09 0.5 24.14 6.92 33.03 7.97-9.79-3.33-22.76-6.92-33.03m74.08 0.26c-5.65 5.84 1.35 14.41 4.02 20.13 5.84-4.97 1.01-15.97-4.02-20.13m-193 1.34c-6.75 7.68-3.3 18.32 1.77 25.63 8.42-6.59 3.9-20.88-1.77-25.63m-15.05 0.71c-3.96 6.26-3.81 16.08 1.89 20.61 5.22-5.17 4.5-16.9-1.89-20.61m30.2 1.14c-4.08 5.49-3.89 14.46 0.83 19.95 6.1-3.87 5.95-18.2-0.83-19.95m249.77 0.82c-4.68 8.4-0.31 17.8 4.99 24.77 7.85-6.6 0.94-19.49-4.99-24.77m-203.86 1c-3.88 8.1-4.68 18.91 2.02 25.72 6.41-5.67 7.56-22.46-2.02-25.72m15.99 0.02c-6.74 9-0.94 21.65 4.69 28.74 7.27-8 1.09-22.09-4.69-28.74m130.85-0.03c-4.95 7.52 3.13 15.34 5.93 22.03 6.75-6.42-2.16-17.15-5.93-22.03m-162.88 2.15c-4.95 6.89-1.39 16.15 3.69 21.76 5.97-6.39 3.31-18.56-3.69-21.76m113.94 2.17c-2.28 3.89 0.79 15.11 5.78 16.27 2.02-4.06-0.91-15.46-5.78-16.27m122.1 0.74c-5.11 7.53 0.06 18.66 5.68 23.74 5.3-7.42 1.04-19.72-5.68-23.74m-105.97 1.18c-4.43 5.8-2.72 16.15 3.8 19.73 2.85-5.88 2.04-17.36-3.8-19.73m48.85 0.11c-3.94 8.2 1.38 17.94 6.92 23.49 7.15-5.84-2.69-19.08-6.92-23.49m-129.82 2.87c-7.43 8.84 2.05 18.81 4.96 27.48 9.18-5.95 0.98-22.81-4.96-27.48m43.9 0.06c-4.03 9.05-2.24 19.59 4.96 26.55 7.4-6.91 1.72-21.43-4.96-26.55m49.96 3.89c-2.92 4.74 2.32 12.66 5.02 16.46 5.43-3.39-1.34-14.64-5.02-16.46m54.01 1.06c-4.64 9.04 1.74 17.99 5.93 25.76 7.65-7.15-0.29-21.03-5.93-25.76m55.01 1.01c-5.45 5.69 2.7 12.9 5.16 18.66 2.41-5.11 1.42-17.94-5.16-18.66m-318.04 0.98c-2.24 5.65 0.36 11.89 3.05 16.88 4.61-4.34 2.46-15.4-3.05-16.88m14.16 0.06c-5.09 7.88-2.04 18.16 2.76 24.53 6.6-5.02 3.91-20.97-2.76-24.53m118.97-0.1c-7.2 12.03 2.54 22.82 6.86 33.71 9.85-8.35 0.15-26.85-6.86-33.71m-88.99 0.94c-6.41 7.47-0.75 19.08 3.71 25.65 6.88-6.35 3.09-21.32-3.71-25.65m180 0.36c-4.57 7.92 2.55 15.67 5.83 22.63 5.43-6.68 0.48-19.78-5.83-22.63m-194.15 0.82c-4.37 7.09-4.86 15.41 0.95 21.68 6.07-5.11 6.3-17.84-0.95-21.68m250.92-0.03c-5.85 7.38-2.08 20.39 4.06 26.58 8.52-6.11 2.96-21.86-4.06-26.58m-219.77 0.85c-7 8.22-3.13 19.39 1.68 27.78 7.41-6.41 6.03-22.9-1.68-27.78m114.85 0.11c-4.88 4.74 2.06 12.89 3.95 17.87 6.26-4.31 0.14-15.16-3.95-17.87m-84.96 0.87c-7.26 11.03-1.35 23.68 4.79 32.57 7.62-9.1 4.75-26.46-4.79-32.57m-14.84 2.11c-4.88 6.55-2.49 15.54 1.83 21.9 7.61-4.84 2.58-17.78-1.83-21.9m220.89 1.02c-3.9 7.93-0.85 18.54 5.68 23.58 6.33-7.07 0.03-19.73-5.68-23.58m-106.19 1.89c-3.75 5 0.95 10.4 3.14 14.91 5.7-2.6 0.16-12.08-3.14-14.91m49.22 0.05c-2.97 7.8 3.43 14.6 6.01 21.56 8.09-3.8-1.04-19.53-6.01-21.56m-131.09 1.81c-4.81 10 0.48 21.75 5.86 29.77 8.21-7.65 1.25-24.68-5.86-29.77m96.18 0.26c-6.1 7.04-0.19 16.28 3.68 22.42 5.63-5.41 2.43-19.77-3.68-22.42m-51.33 2.6c-6.52 7.99 0.07 18.47 5.01 25.09 5.17-8.19 1.06-18.92-5.01-25.09m160.27 0.38c-6.29 6.43-0.35 15.51 3.85 21.67 5.22-6.3 2.21-17.7-3.85-21.67m-318.92 2.1c-3.25 6.5-3.62 12.61 1.85 18.57 5.41-2.6 5.43-19.08-1.85-18.57m13.61 2.55c-4.14 6.24 0.08 13.61 3.26 19.23 6.9-3.84 1.3-15.21-3.26-19.23m249.34 0.36c-5.71 6.63 3.25 14.89 4.9 21.55 8.24-3.89-0.07-19.08-4.9-21.55m-87.01 0.95c-5.37 6.59-2.04 16.63 2.98 22.52 7.04-4.95 4.01-19.7-2.98-22.52m47.86 0.03c0.61 4.89 2.35 17.21 8.4 17.12-0.26-5.5-2.35-16.45-8.4-17.12m-180.97 0.91c-8.06 8.5-0.73 18.54 3.02 26.93 7.66-6.1 4.14-22.25-3.02-26.93m89.1 0.35c-5.08 11.02 3.57 22.61 8.85 31.16 6.51-9.24-1.9-26.09-8.85-31.16m-104.01 1.72c-3.3 6.28-2.28 14.44 1.9 19.67 6.01-3.6 5.55-18-1.9-19.67m252.01-0.03c-4.1 7.8-1.12 18.84 4.93 24.55 7.14-6.05 0.56-20.76-4.93-24.55m-220.93 2.02c-5.59 7.74-1.64 16.78 2.82 23.96 6.82-6.34 3.85-19.55-2.82-23.96m15.91 0c-3.09 7.45-4.73 17.97 1.78 23.67 6.76-5.6 5.24-19.98-1.78-23.67m116.13 1.23c-2.55 4.35 0.45 9 2.33 12.96 7.52 2.99 1.08-14.99-2.33-12.96m49.06-0.92c-1.68 8.33 1.7 16.16 5.75 23.35 9.25-5.07-0.09-19.04-5.75-23.35m-150.01 1.81c-6.75 8.63-0.09 20 5.41 26.56 7-8.37-1.76-20.87-5.41-26.56m206.88-0.13c-5.4 8.33-1.84 18.57 3.89 25.7 7.78-5.89 3.54-21.77-3.89-25.7m-303.24 3.85c-2.07 7.87-5.93 20.01 1.87 25.84 7.09-6.98 5.4-21.04-1.87-25.84m320.13 0.11c-5.73 7.29-0.92 16.48 3.81 22.92 8.29-5.87 0.19-18.19-3.81-22.92m-204.91 1.05c-9.02 10.31-0.98 21.74 3.73 31.77 8.54-8.61 3.46-24.8-3.73-31.77m95.85 0.13c-2.15 5.82 2.21 11.31 4.04 16.55 5.82-2.88 0.5-15.07-4.04-16.55m15.82 0.56c-5.53 8.54-0.3 19.25 5.04 25.91 6.74-6.71 0.88-19.95-5.04-25.91m-67.72 1.22c-6.67 8.31-0.38 18.63 4.71 26.16 5.48-7.4 1.66-21.6-4.71-26.16m105.11 0.4c-3.93 8.74 2.51 16.64 5.76 24.33 7.02-6.26-2.24-20.54-5.76-24.33m-249.98 0.8c-3.99 7.23-0.96 15.81 3.7 21.39 5.96-4.62 3.41-20.1-3.7-21.39m320.72 3.61c-4.78 13.29 6.66 9.63 0 0m-158.86 2.37c-3.79 7.08 0.02 14.6 3.65 20.87 6.07-5.85 3.23-18.71-3.65-20.87m17.02-0.11c-4.7 7.44-4.89 16.08 1.68 22.88 5.2-7.07 4.55-18.07-1.68-22.88m-163.91 1.07c-4.52 4.75 0.92 10.43 1.8 15.53 6.54-1.61 3-14.47-1.8-15.53m13.84-0.04c-5.52 8.03-1.15 17.78 3.88 24.4 7.17-5.45 1.43-19.76-3.88-24.4m89.75-0.25c-6.17 11.14 4.8 18.22 5.15 26.81 2.67 11.44 10.32-9.3 2.28-7.78 2.44-6.21-0.9-16.82-7.43-19.03m109.24 1.34c-2.09 7.17 2.81 16.48 7.82 20.39 1.86-6.33-3.51-16.76-7.82-20.39m38.86-0.23c-4.23 7.93 0.79 16.38 5.15 22.97 7.86-5.91-0.56-18.02-5.15-22.97m-221.28 1.92c-5.97 7.65-3.59 17.27 2.38 23.88 7.22-6.21 3.71-18.56-2.38-23.88m147.43 1.3c-2.79 6.15 1.61 12.09 3.91 17.55 5.34-3.74 0.67-16.17-3.91-17.55m-116.77 1.04c-5.79 8.89-1.43 20.95 4.5 27.55 7.51-7.17 2.04-23.16-4.5-27.55m-15.22 0.78c-5.35 6.81-1.54 15.3 2.73 20.76 4.01-6.38 3.37-17.09-2.73-20.76m222.97-0.11c-6.35 8-0.23 16.8 3.91 24.1 7.04-6.71 1.62-19.12-3.91-24.1m17.1 3.2c-5.4 6.86-2.95 18.58 3.69 23.77 5.03-6.98 2.78-19.83-3.69-23.77m-306.01 2.05c-4.63 9.02-5.03 19.05 1.98 26.9 4.93-7.39 6.49-22.81-1.98-26.9m211.7 0.84c-2.78 6.93 4.1 14.55 7.06 19.56 3.3-5.21-1.63-16.96-7.06-19.56m110.18 0.08c-4.9 8.35 0.1 18.87 5.98 24.47 0.96-7.97 0.85-19.65-5.98-24.47m-177.96 1.07c-5.21 7.36 1.26 17.74 5.88 23.53 5.68-5.58 0.22-20.99-5.88-23.53m106.15-0.13c-3.43 7.27 3.47 13.73 4.93 20.69 8.56-2.48 1.6-20.19-4.93-20.69m-235.18 2.06c-2.97 6.35-2.13 13.05 1.91 18.73 4.97-3.45 3.62-17.43-1.91-18.73m84.06 0.99c-4.77 7.56 0.77 17.94 6.77 22.77 4.59-7.21-1.86-18.66-6.77-22.77m129.99-0.11c-4.84 8.9 0.88 18.81 5.65 25.83 8.12-7.66-0.81-20.24-5.65-25.83m-242.13 3.1c-1.86 1.08-1.13 11.02 2.6 9.27-0.34-2.23 0.73-9.06-2.6-9.27m41.31 0.38c-4.97 7.59 1.61 14.86 3.82 22.06 7.02-4.02 0.97-19.53-3.82-22.06m133.86-0.33c-4.48 5.83-2.8 14.92 2.88 18.7 6.51-3.58 2.6-16.77-2.88-18.7m104.9 0c-2.69 7.22 0.81 16.69 5.97 21.53 5.54-5.58-0.5-18.66-5.97-21.53m-148.98 1.67c-9.24 12.34 7.32 22.79 2.25 34.45 16.51-4.17 6.2-28.27-2.25-34.45m60.12 0.36c-5.26 5.69-1.35 13.83 1.76 19.65 6.24-3.84 3.65-17.54-1.76-19.65m15.86-0.19c-5.12 6.97-3.34 18.56 2.87 23.74 6.33-5.98 3.36-18.9-2.87-23.74m-149.86 3.39c-2.47 3.23-1.57 7.61-2.06 11.4 7.03-0.25 6.84-10.18 2.06-11.4m239.01 0.9c-2.36 7.25 0.71 16.4 5.67 21.57 5.96-6.97-1.12-18.37-5.67-21.57m-75.11 2.88c-3.13 7.35 3.58 14.42 6.03 20.97 5.26-6.55-0.7-17.9-6.03-20.97m37.79 0.92c-2.69 5.89 2.8 16.12 7.68 18.52 1.74-5.71-3.71-15.07-7.68-18.52m54.19 0.97c-3.5 6.11-2.44 16.19 5.23 18.19 3.24-6.13-0.83-14.89-5.23-18.19m-160.92 2.06c-6.14 5.81-0.1 13.43-0.54 20.1-9.75 3.39 7.19 5.03 7.47-1.41 1.09-6.08-1.79-15.9-6.93-18.69m177.85 0.94c-1.74 4.45-5.55 12.75 0.8 14.75 9.61-1.17 3.76-11.48-0.8-14.75m-306.83 1.01c-2.98 4.29-1.72 10.32-4.25 14.98 11.48 5.82 10.16-12.63 4.25-14.98m66.08 0.13c-8.82 3.53 4.33 13.06-0.05 19.64 10.06 0.8 7.5-19.91 0.05-19.64m17.75 0.07c-3.16 9.39-10.38 26.97 8.24 19.28 0.11-5.95-3.89-15.81-8.24-19.28m-100.93 1.88c-3.8 5.7-2.02 13.87 5.57 13.18-0.08-4.21-0.86-12.75-5.57-13.18m269.8-0.16c-3.49 5.43-1.95 17.95 6.44 15.54-0.13-5.18-2.41-12.04-6.44-15.54m-239.74 1.12c-3.61 5.03-3.19 17.56 6.31 14.14-0.72-4.93-3.31-11.73-6.31-14.14m201.08 0.18c-2.4 5.07 1.02 16.5 7.51 16.45-0.44-5.88-4.36-13.59-7.51-16.45m-67.31 1.67c-2.13 5.21-4.42 17.3 3.73 16.87 4.87-4.88-0.21-12.87-3.73-16.87m16.12 1.08c-3.15 4.52-3.49 10.52-3.67 15.88 13.02 3.58 8.82-11.84 3.67-15.88m15.13 3.02c-4.68 5.11-2.12 15.18 6.42 12.66-1.18-4.13-2.02-11.69-6.42-12.66m-150.21 0.82c-1.59 3.77-2.36 10.96 4.65 8.2-0.35-2.96-0.72-8.37-4.65-8.2m165.43-0.41c0.29 3.64-2.88 9.15-0.34 11.35 10.3 3.33 4.33-9.3 0.34-11.35m38.55 0.57c-1.7 4.4-4.08 12.22 4.54 8.99 0.29-3.31-1.02-8.24-4.54-8.99m-130.05 1c-1.01 2.9-2.5 8.5 1.7 9.01-0.96-3.17 3.3-8.36-1.7-9.01m167.34 0.22c-4.13 9.81 7.09 3.24 0 0m-210.21 4.81c-2.94 5.39 8.83 1.21 0 0zm-552.2-619.02c29.67 8.6 63.13 6.34 90.57 21.19 15.17 1.75 28.51 11.01 40.96 19.56 3.3 4.76 14.08-1.31 13.59 5.99 2.54-3.05 6-1.52 5.24 2.45 9.56-1.98 12.36 13.54 23.14 10.22 9.2 13.02 33.87 21.74 40.29 40.41 7.67 4.44 11.22 12.79 12.74 21.44-2.16 1.91-3.37 3.57 0.3 4.29 2.23 15.17-1.09 30.42 1.73 46.01-8.12 26.68-28.74 48.4-47.51 67.72-6.28 7.69-25.71 17.49-40.29 25.22-41.83 22.52-89.89 21.89-134.39 16.55-1.95-6.27-5.57 3.04-10.61-1.37-30.97-9.4-65.76-31.85-88.84-45.95-1.46-3.79-6.76-8.17-11.63-8.75-8.52-14.27-19.3-19.57-31.3-33.38-4.96-5.13-10.01-21.55-17.14-34.19-10.87-30.99-15.9-61.48-5.14-92.8 9.43-10.24 10.72-26.03 24.74-32.34 35.83-33.9 88.54-28.12 133.55-32.27m-13.2 17.94c-26.08 4.22-54.72 0.39-78.15 14.62-9.41 3.38-23.03 5.22-25.49 16.41-11.4 15.15-22.15 31.22-24 50.67-2.7 52.16 34.69 97.62 74.65 126.81 21.31 9.49 41.61 22.31 64.89 27.05 19.25 4.28 38.96 14.56 59.77 14.6 19.77-6.41 46.39-2.56 67.36-15.48 35.13-14.01 66.22-41.08 79.92-76.81 9.81-29.95 4.1-63.5-15.05-88.26-5.8-8.54-23.41-17.09-35.36-24.6-1.24-2.68-10.42-8.84-6.9-3.01-6.8-2.91-21.82-15.3-21.4-0.44-9.58 10.86-23.04 19.05-37.55 20.48-13.14 7.78-22.45 20.91-24.03 37.26-10.07 46.1-42.43 88.7-88.97 102.26-12.16 2.71-22.38-4.12-30.56-11.55-1.27-14.2 16.96-16.25 27.14-17.96 21.39-8.22 36.87-26.12 50.1-44.71 9.48-19.63 21.6-43.32 10.78-64.89-5.74-6.3-7.46-15.41-15.12-19.98-7.46-11.45-7.32-25.39-4.42-37.55-8.91-3.08-18.59-2.92-27.61-4.92m11.88 170.6c10.44-5.7 22.35-16.18 27.22-27.76-10.12 7.57-17.81 20.56-27.22 27.76m-29.23 13.7c-2.32-0.67-11.52 2.05-5.46 4.2 13.25 2.67 26.72-8.89 34.69-17.9-9.98 3.41-17.25 14.32-29.23 13.7zm590.92-236.21c31.28-7.17 44.09 40.21 18.11 54.31-17.59 11.54-41.25-3.77-43.3-22.14-7.97-16.8 8.56-32.52 25.19-32.17m5.6 8.84c-9.5 1.14-23.36 3.01-23.15 15.69 12.11-0.72 23.73-4.27 35.74-5.4-3.18-4.6-5.77-10.85-12.59-10.29m13.99 13.71c-1.27 2.36-1.22 6.53-4.51 6.94-10.34-3.85-20.3 2.26-30.53 2.2 1.52 8.39 10.42 17.04 19.7 15.8 12.93 1.66 21.63-15.43 15.34-24.94zm-666.66-53.54c0.93 1.15-3.77 6.56-6.65 7.44 0.81-3.41 4.19-5.26 6.65-7.44zm142.94-3.09c-0.53 1.49-7.06 15.14-13.39 17.66 3.5-6.34 8.22-12.66 13.39-17.66zm27.89-3c2.58-1.32 1.15 4.01 0.15 5.26-12.92 18.59-26.66 38.06-41.53 54.24 11.97-20.69 25.67-41.42 41.38-59.5zm15.7-10.75c11.09 0.49 3.71 6.88 0 0zm-53.26-1.04c12.83 3.85 34.69 0.75 51.12 2.3-4.45 7.03-14.03-1.47-21.67 3.89 5.03 4.63-8.22 5.61-5.71 11.37-9.59 3.9-14.93 17.71-22.34 26.33-7.51 1.38 1.17-9.02 3.5-10.77 8.39-5.86 8.45-20.4 19.21-22.79-6.81-4.4-16.29-3.87-24.96-2.04-14.1 16.45-25.82 35.68-40.88 51.24 10.02-17.42 21.47-34.25 33.56-50.28-13.14-1.49-30.63 0.51-38.61-4.52 5-7.96 33.38 3.08 46.78-4.73zm455.53-27.5c2.26-0.49 2.87 1.57 2.36 3.41-12.01 17.88-19.17 39.21-34.73 54.56-4.66 3-4.61-3.82-1.99-6.03 13.57-15.88 22.67-34.94 34.36-51.94zm17.13-28.78c3.95 1.3-3.15 9.52-6.36 11.87 1.71-4.13 3.34-8.5 6.36-11.87zm-25.9-0.84c2.99 2.12-7.97 8.77 0 0zm31.95-9.99c2.95-0.62-1.09 6.57-3.16 7.91-0.47-2.97 0.77-6.11 3.16-7.91zm-2.12-20.18c1.62 6.28-7.94 7.19 0 0zm39.96-6.15c5.46 3.44-5.42 9.77-3.8 12.76-6.13 9.69-8.14 25.2-19.34 30.17 5.69-15.08 13.15-30.38 23.14-42.93zm-139.71-35.49c2.34-1.13-2.49 6.03-1.09 8.8-21.97 36.88-42.43 74.64-66.37 110.31 5.22 2.35-6.87 6.58-8.34 11.1 15.38-33.33 36.75-63.78 53.74-96.28 6.62-11.79 12.39-24.26 22.06-33.93zm44.98-23.24c8.75-1.65 18.82 0.12 25.45 6.41 12.14 15.53 6.69 42.27-14.45 46.7-15.41 8.77-38.52-1.3-39.21-20.14-6.64-17.89 12.02-31.58 28.21-32.97m2.25 10.12c-12.27 0.25-26.66 10.04-19.87 24.15 8.01 27.76 58.07 1 34.41-20.25-6.43 4.1-10.88 15.42-16.71 21.5-14.5-4.43 22.3-27.74 2.17-25.4zm80.45-21.34c3.89-0.34 1.98 5.74 0.62 7.67-15.46 28.32-32.51 55.69-48.11 83.96-2.29 3.54-3.43 8.71-7.97 10.04 15.84-35.07 35.75-68.87 55.46-101.67zm-1761.9-227.25h2.66c25.09 6.39 57.78 12.47 68.04 39.59 226.03 2.54 451.79 2.15 677.73 1.2 11.72-3.2 13.62-18.64 23.1-24.56 154.35-0.44 308.54-1.27 462.85-0.64 19.91-2.7 36.87 5.67 55.13-0.23 47.71 1.17 95.53 0.63 143.23 0.31 3.27-0.84 15.94 5.35 7.99-0.5 14.27 0.34 28.56-0.1 42.83-1.2 36.89 5.75 64.12 33.95 87.87 60.61 17.69-1.99 34.48-9.17 50.51-16.53 19.44 4.12 18.94 35.33 41.48 32.57 19.65-10.83 37.05-25.43 56.67-36.23 18.15-9.89 49.47-6.03 55.3 16.93 1.1 15.16-20.46 12.77-29.95 12.09-15.26-5.75-26.61 7.74-37.54 15.74-14.29 9.05-18.38 26.74-19.92 42.37 3.53 7.88 14.44 7.76 21.59 10.43 14.77 13.72 23.42 33.13 22.49 53.44 22.5 4.09 47.53-5.39 69.55 4.7 29.83 12.5 38.53 49.75 36.09 79.07-4.37 29.75 6.57 59.17 15.72 86.19 17.74 25.49 35.25 54.05 58.46 76.55 11.96 8.36 18.5 22.31 27.08 33.85 17.16 19.2 35.97 38.5 46.1 62.52-3 6.34 4.02 0.52 5.32 7.18 32.68 68.77 57.37 140.92 74.71 215.29 13.39 94.23 31.06 188.09 39.07 283.01 3.16 22.94-1.43 46.6 6.57 68.82v9.24c2.36 34.67-35.39 44.75-61.9 50.29-52.62 12.75-107.6 8.29-161.27 12.9h-3.83c-5.66-0.51-11.77-2.53-17.16 0h-1.89c-6.62-1.38-13.33-1.41-19.89 0h-1.91c-12.32-0.99-25.25-2.5-37.34 0h-0.97c-43.24-3.53-86.84-0.55-130.16-4.12-29.59-9.08-64.13 2.54-89.97-17.45-8.64 4.78-9.07-5.62-11.97-11.14-3.92-14.18 0.58-29.12 4.87-42.68 17.46-74.76 33.06-151.32 45.83-226.21 2.87-0.05-0.67-2.21-0.18-3.68 10.73-75.44 20.41-151.05 24.92-226.51-2.08-46.78-7.02-102.32-47.59-132.73-9.32-12.6-25.75-4.91-38.13-10.72-11.51 0.31-22.94 4.76-34.71 3.54-29.07 11.17-43.43 43.67-47.48 71.78-1.87 20.33-9.51 39.54-11.27 59.94-16.13 43.24-51.37 76.71-90.81 99.18-85.52 46.14-197.15 36.09-273.42-23.96-29.42-26.55-56.23-57.88-69.11-95.99-8.62-48.39-31.48-92.36-50.81-137.08-7.81-8.82-12.83-20.27-20.09-29.12-51.78-2.65-103.83-0.91-155.65-2.05-9.22 1.66-25.52 0.4-23.07-13.05 3.29-15.55 3.58-31.93 0.83-47.5-6.37-26.33-2.08-54.97-13.09-80.4-3.08-25.23-9.4-50.18-22.81-71.97-8.3-6.51-12.37-17.77-17.77-25.7-219.55-5.53-439.48-3.6-659.13-3.42-4.11-3.12-12.38-0.64-14.6-5.89-0.81-19.03 1.15-38.29 0.23-57.2-47-3.49-94.34 1.19-141.36-0.4-7.84-10.86-5.16-26.62-10.3-39.21v-6.37c1.24-4.69 2.72-9.89 0-14.39v-22.79c4.16-11.57-1.56-26.69 6.86-37.22 15.41-1.36 31.1-0.07 46.54-1.96-0.96-8.28 3.87-12.26 11.68-12.24 7.47-10.18 14.49-21.99 27.19-26.32m19.39 16.63c-9.98 3.06-30.96-3.88-33.42 9.43 18.82 1.53 40.29 1.58 57.64 0.1-6.46-2.8-15.96-10.64-24.22-9.53m1043.8 3.74c-22.66 5.51-45.92-1.18-68.77 1.84-68.86-0.18-138.18 0.36-207.22 1.21-16.22-3.85-19.33 16.05-29.07 24.24-1.49 10.25 9.51 15.39 18.3 12.63 11.22 3.37 4.63-12.44 11.8-14.03 227.29 0.44 455.49 4.63 682.66-0.42 18.41 0.13 29.08 16.52 44.73 23.27 4.37 6 15.77 11.03 15.93 17.75 24.25 13.31 48.26 37.55 58.36 65.95 13.77 15.86 13.13 39.15 20.97 57.08 11.33-9.5 17.11-26.08 25.69-38.84-7.97-9.23-16.57-18.03-24.43-27.43-26.33-22.64-36.14-58.68-63.76-80.25-8.6-13.43-24.38-18.81-35.11-29.89-29.68-14.45-64.58-10.2-97.01-10.89-20.35 3.05-41.21-5.49-61.13-0.07-51.75-1.05-105.34 0.71-156.2-0.16-44.18-2.43-90.68 1.63-135.74-1.99m-1087.1 15.79c-1.65-0.8-2.23 3.74-0.41 2.94 26.21-0.91 52.34 1.15 78.5 0.72 1.97 0.52 2.34-3.03 0.16-2.63-26.08-2.36-52.15-0.14-78.25-1.03m280.94 16.42c-47.96 2.85-100.39-2.89-145.92 2.41 121.56 0.71 243.03 0.71 364.64-0.02 33.1 0.38 68.38 1.76 99.95-0.96-106.29-0.59-212.62 0.63-318.67-1.43m-166.35 1.37c3.81 3.16 13.44 0.03 19.02 1.1-3.81-3.16-13.45-0.03-19.02-1.1m565.5 0.13c3.27 5.09 19.13-3.22 0 0m798.02 1.29c-7.67-0.21-14.36 12.99-4.91 16.89-0.3 9.24-1.89 8.29-6.41 16.33 0.02 51.03-1.62 102.21 0.64 153.19 8.06 8.59 1.95 28.19 14.12 35.2-7.41-4.81-1.84 3.2-3.49 7.7 5.15 0.83 5.17 6.48 9.29 7.62-1.05 5.48-3.52-4.56-5.88 1.57-4.52 7.33 12.06-0.06 6.59 6.6 0.8 1.87 14.07 3.02 10.65-2.74 5.32 3.1 16.33 1.02 14.08-6.59 11.22-6.45 6.7 6.59 14.53 9.24-6.9-5.63 9.45-10.54-0.59-8.26 0.24-4.02 5.57-5.04 4.88-7.88 4.03 6.64 12.11 1.24 18.75 2.55-4.85 4.49 6.42 3.37 6.67 1.76-9.33-5.83 15.87-13.61 8.77-5.33 6.92 5.54 7.71-1.83 6.28-7.46-6.89-2.9-2.64-9.55 4.4-5.65-10.53-2.17 11.16-12.45 9.65-3.72-3.6 0.7 0.75 6.5 0.49 9.8 6.32 3.9 6.5-4.52 10.1-7.01-6.24 2.52-3.1-3.49 1.63-2.21-6.36-5.73 6.54-0.41 10.02-3.72-2.17-2.81-0.74-5.87-4.42-6.01 7-0.57 7.09-8.63 14.01-9.39 2.12-12.42 1.4-24.64 2.13-37.14 3.61 2.82 1.49-6.29 0.17-6.53 4.7-26.2-13.49-49.02-24.74-71.05-8.96-9.51-17.41-20.67-27.87-28.18-23.61-24.19-51.71-54.41-89.54-49.58m-529.33 0.73c-1.97 5.18 9.92 4.39 11.11 0.94-3.53-1.32-7.43-1.34-11.11-0.94m812.51 3.44c-9.41 1.56-19.74 4.6-25.55 12.62 16.33-5.69 32.98-11.17 49.95-4.2-4.13-7.18-16.43-9.03-24.4-8.42m-1647.4 1.03c-55.03 2.32-110.2-0.2-165.48 2.06-3.9 0.17-9.61 3.14-4.58 6.3 103.38 3.97 207.13 1.08 310.64 2.74 165.33-1.41 333.78 0.31 500.44-1.45 5.3-3.92 23.61 4.3 21.43-5.82-220.82-4.09-441.93-1.08-662.45-3.83m1165.1 1.91c-95.06 0.81-190.17 0.83-285.16 1.37-1.65 13.56 17.1 6.64 25.36 8.85 139.35 1.04 278.78-0.31 418.11-0.86 5.85-0.94 16.02 1.25 12.36-8.54-56.95-0.35-113.73 1.17-170.67-0.82m-488.96 2.69c-2.47 0.35-1.88 4.15 0.99 3.54 52.32 1.44 104.67 1.36 157.02 0.71 8.13 2.46 4.05-3.54 0.57-2.57-52.8-1.18-105.64-2.4-158.59-1.68m-618.26 10.39c-73.98 2.33-147.64 0.07-221.72 1.89-16.72-0.98-8.81 21.08-8.05 31.2 36.51 8.82 74.63 2.15 111.7 4.31 241.06 0.4 481.12 1.03 722.14-0.49 0.33 5.94 4.69-1.6 0.88-3.74 2.09-9.77 3.29-19.81-0.71-29.29-77.24-2.8-154.83-1.41-232.03-2.95-65.95-0.27-133.39 2.31-198.84-1.1-6.39 3.59-14.33 1.51-21.37 2.46-50.58-2.38-101.36 0.2-152-2.29m618.25-0.36c-1.82-0.71-1.99 3.44-0.25 2.85 56.69 2.24 110.81-0.21 166.03 2.8 1.39-5.97-6.32-3.41-9.63-4.44-52.15-0.48-104.03-2.13-156.2-1.21m474.86 1.88c-5.52 6.63-15.13 0.66-22.56 2.85-80.37-0.23-160.53 0.15-240.75 1.89-2.71 1.87-2.07 7.85-1.11 9.8 98.32 1.39 196.62-0.27 294.88-0.59 3.82-0.58 11.34 1.26 10.14 6.62-1.98 3.63-7.27 2.15-9.77 4.7 11.29 4.95 29.58-12.05 18.52-22.18-15.69-2.53-36.6 4.05-49.35-3.09m-477.05 7.1c0.02 23.82-6.61 46.76-11.16 69.89-1.95 10.35 11.08 8.61 17.5 9.13-1.52-4.66 0.58-11.07 6.87-9.78 40.31 0.89 80.62-0.4 120.94-0.77 5.51-1.2 7.63 5.55 5.94 9.6 9.67-2.84 34.11 7.47 28.77-11.21 0.96-21.84-0.48-43.7-0.31-65.56-55.75 0.75-112.37-2.32-168.55-1.3m861 9.06c-3.63 15.05-13.97 26.73 0.98 37.92 5.51-9.56-4.92-25.2 5.34-32.82 2.88-2.35-5.52-5.06-6.32-5.1m-12.14 3.95c1.04 4.68-1.54 16.33 4.97 16.58-1.24-4.72 1.78-17.14-4.97-16.58m-5.92 2.03c-3.23 3.64-0.56 11.83 4.67 12.96-2.62-3.82 1.23-12.54-4.67-12.96m-284.06 1.05c-1.99-0.17-14.9 0.44-7.83 2.72 28.89-1.19 60.27 1.08 87.65-2.04-24.68-2.25-53.5-0.43-79.82-0.68m348.63 3.02c-3.98 1.62-7.61 3.98-11.44 5.9 2.18 8.68 10.49 14.53 16.95 19.99 4.07-7.87 8.19-17.02 12.54-25.32-6.01-0.37-12.06-1.09-18.05-0.57m-377.68 7.07c-5.18 2.62-9.98 10.75-15.75 3.07-96.51-3.99-193.34-0.8-289.84-1.93-3.98 1.05-15.06-2.05-11.96 5.15 36.71 3.53 70.93 1.31 107.4 2.24 113.47-1.35 227.8 0.99 341.64-3.12 3.3-5.62-5.58-4.94-8.64-4.85-40.89-1.31-82.31 2.43-122.85-0.56m343.46-0.05c-6.66 7.94-2.4 19.76-3.15 29.28 0.73 4.17 10.6 12.44 8.78 4.56 0.02-8.37-1.61-20.4 5.16-26.85 2.26-6.62-6.05-7.7-10.79-6.99m-1461.5 8.63c2.35 2.93 10.05 0.14 14 1.12-2.34-2.93-10.08-0.15-14-1.12m221.14 0.33c-5.99 3.91 12.82 0.33 0 0m-114.14 0.73c8.92 3.47 14.27-1.72 0 0m67.99-0.03c2.85 3.4 12.3-0.12 17.02 1.06-2.86-3.4-12.32 0.11-17.02-1.06m22.02 0.03c4.46 2.62 13.81 0.33 19.98 1-4.48-2.63-13.82-0.34-19.98-1m37.98-0.05c3.81 3.16 13.43 0.03 19.02 1.1-3.81-3.16-13.46-0.03-19.02-1.1m887.62 3.49c-42.96 4.48-87.88-0.7-131.58 1.62-55.72-1.3-113.97 0.91-167.28-0.11-8.52 3.75-31.16-4.05-23.39 14.53 21.64 2.66 43.59 0.94 65.37 1.66 2.43 4.16-4.4 4.46-6.79 6.11-19.5 1.46-39.4-0.64-58.86 2.23 0.98 4.99-3.56 17.02 4.73 17.15 94.27 0.94 188.69 0.75 282.87-0.87 22.24-3.14 44.37 17.39 41.46 40.27 0.26 20.81-17.01 34.74-32.42 45.32 48.88 2.66 98.44 0.58 147.59 0 5.43 3.47 8.03-10.16 2.2-5.8-38.12 0.08-76.36-0.91-114.4 0.47-6.82 3.6-9.97-7.44-3.61-9.89 40.21 0.19 80.76 1.09 121-2.61 0.79-2.19 2.02-7.01-1.44-6.62-35.53-1.03-71.12-0.07-106.71 0.08-4.46 2.02-13.98-4.64-6.74-7.91 36.77-0.39 73.41-0.61 110.15-1.5 6.28 1.15 6.45-6.12 5.82-10.32-36.04-0.2-72.18-0.92-108.19 0.43-3.82-1.52-3.72-6.17-0.99-8.58 36.01-0.3 72-0.01 107.91-1.56 3.08-16.03 1.93-32.72 1.32-49.03-90.25-6.38-180.53 0.76-270.98-2.15-11.09-0.81-24.64 4.04-33.54-2.42-9.13 6.95-22.58 2.35-33.09-0.16 5.22 10.1-17.38-2.49-21.57 3.54-7.66 0.06-18.02 0.44-24.39-4.33 26.16-5.91 54.62 0.33 81.34-1.8 99.76-0.47 199.31-1.04 299.07-2.43 5.43-0.68 1.43-7.86 2.47-11.26-41.91-5.7-85.87-0.38-127.33-4.06m358.49 2.72c0.7 13.11 7.45 24.1 6.32 37.59 4.61 2.4 9.18 5.9 14.54 6.07 4.25-10.25-8.03-7.87-7.9-15.69 2.57-5.59 14.66 2.97 11.09-5.15-8.21-6.89-14.11-19.46-24.05-22.82m-1350.8 1.28c-115.67 3.48-233.54-2.59-348.34 2.54 211.74-0.76 423.15 2.02 634.2-0.08-94.35-3.48-190.88 0.62-285.86-2.46m290.64 1.51c14.74 2.96 34.19 0.86 50.3 1.43-16.12-4.04-33.72 0.1-50.3-1.43m67.61 0.51c-0.78 0.41-4.73 0.02-3.08 1.36 10.47 2.18 20.91-1.15 31.47 0.27 11.69 1.32 0.26-2.93-2.32-1.81-8.69 1.05-17.34-1.5-26.07 0.18m1019.5 24.77c-0.24 14.91 17.82 31.2 29.72 18.89-2.66-14.2-19.1-14.08-29.72-18.89m-1335.7 5.23c-31.39 3.37-65.92-1.55-96.36 2.5 82.25 2.31 164.29 0.82 246.62 0.91 1.41-1.42 9.09 0.89 9.1-1.85-53-1.81-106.57 2.38-159.36-1.56m-158.9 0.89c-14.08-1.57 0.05 12.86-5.09 13.25-3.05 13.61 1.57 27.64-0.13 41.37 4.53 0.61 13.25 3.65 13.77-3.22 0.37-11.78 2.36-23.51 1.36-35.32-0.43-4.36-6.71-1.52-8.56-4.42 11.72 1.4 9.25-16.35-1.35-11.66m319.64 0.62c27.21 3.61 62.13 0.99 89.85 1.03-27.97-2.36-60.23-0.31-89.85-1.03m-163.71 15.55c-41.6 1.89-84.28 0.02-126.21 1.3-4.21 0.5-15.34-3.71-11.98 5.12 140.98 3.34 281.83-2.12 422.74 1.51 39.44-1.74 78.8 2.31 118.05-2.62-37.29-5.85-79.26-1.65-118.31-3.3-12.98-3.91-28.37 5.29-40.66-2.93 2.58 4.68-5.88 1.44-7.41 3.06-78.65-1.75-157.62 0.17-236.22-2.14m1295.1-0.13c-8.39 15.27-20.61 28.04-28.91 43.36-0.85 1.61-0.76 5.91 1.01 5.91 10.79-11.99 14.22-32.2 29.34-39.31-7.21 17.33-19.1 33.3-30.12 48.62-1.75 13.66-4.32 27-8.62 40.13-9.73 16.38-11.42 36.25-21.67 52.45-7.16 18.09-27.35 23.72-39.17 37.84-17.06 8.57-34.06 17.5-53.17 20.59-14.11 10.57-37.18 2.65-47.69 13.78-25.75 0.58-52.76-1.16-76.55-2.73-3.21 3.22-6.73-4.34-8.72-3.72 24.6-3.33 55.08-0.09 79.64-4.39-4.15-1.21-13.26-1.13-19.21-2.52-205.36-1.1-411.4-0.17-616.82-2.44-5.83-3.36-7.86 2.04-4.48 7.01 134.69 1.53 269.33 1.36 404.13 1.97-2.09 5.3-13.06-0.31-19.29 1.9 2.08 4.18-1.22 2.79-4.06 2.03 3.65 5.27-8.89 4.64-3.03 0.8-23.42 5.72-48.24 1.17-72.15 2.98-16.37 16.2-28.16 38.11-45.63 52.65 12.22-17.19 26.18-34.63 36.3-52.45-16.69 5.81-25.08 28.22-39.59 39.06 6.82-13.46 17.59-25.11 23.72-39.1-32.82-0.99-65.5-0.27-98.12-0.25-4.55 8.63 3.16 21.61-3.34 30.24-4.53 13.08 9.92 26.09 3.05 38.08 11.9 13.59 19.04 30.31 25.82 46.91 16.97 29.08 25.58 62.08 37.54 93.15-1.21 8.22 12.79 16.47 5.43 23.22-0.2 2.23 5.2 1.95 2.55 4.38 7.98 33.19 33.96 64.63 60.23 88.52 92.49 74.6 244.21 68.48 324.12-22.02 16.94-17.67 24.34-41.09 31.42-63.57 2.09-17.57 1.57-40.53 14.23-53.44 2.9-10.17-1.99-20.79 4.89-30.42 7.82-15.9 15.66-33.44 32.54-41.64 10.46-2.74 22.16-9.11 28.46-8.49-5.91-4.59-1.4-2.93 3.32-1.13-7.17-4.71 4.69-5.05 8.59-3.24 3.35 2.05 12.88-3.99 6.56 1.97 7.24-1.63 14.89 2.76 21.93-1.14-4.99 5.99 5.8 7.05 1.21 0.35 11.2 0.36 9.2 5.93 18.63 5.75-0.22 5.21-8.8-3.33-9.56 1.63 3.48 2.09 7.59 4.11 11.69 2.53-0.49 10.03 5.63 0.04 8.14 6.01 3.65 7.4 27.44 13.35 20.89 25.56-10.29-4.91-1.63 19.37 3.46 13.74-5.06-8.36 8.32-2.29 3.43 3.19-2.24-1.52-7.55 0.85-2.81 0.81 9.08 2.03 6.65 7.58 6.84 11.22 7.89-1.27-2.4 4.53 5.02 6.08-2.73 2.16-5.71 5.37-0.27 3.43 7.09 6.81-0.73 16.54 9.41 18.61 6.62 2.41-8.36 5.31 0.56 5.43-7.39 3.73-7.75 17.19 3.05 14.69 2.87 5.9-9.8 5.29-3.8 8.1 3.47-6.08 19.64 0.13 5.52-1.22 3.71 9.56-8.59-1.95-7.13 4.75 10.89-0.23-1.8 7.29 8.82 2.8-2 1.94 3.65 5.86 0.72 9.64-5.1 14 1.32 24.27-0.23 37.76 5.67 2.95-5.87 4.92 1.5 7.89-2.33 4.66 3.06 11.69-0.83 16.87 5.1 5.36-7.73 8.33 1.5 10.52-4.37 1.6-4.04 6.79-1.72 10.17-2.33 10.45-1.26 23.01-3.61 29.31-2.81 1.42 3.59 5.14-0.78 11.38-2.55 8.37-5.08 26.91-2.75 35.11-6.68 1.22-1.43 9.82-2.34 12.39-5.43 9.55-13.1 27.45-1.5 28.28-6.52 2.4 0.3 8.49-6.58 11.59-6.45 6.13 9.63 10.83-1.76 7.95-4.99-0.23 4.67 5.16-0.6 6.82-3.75 6.28 1.65 7.14-0.99 12.23-0.76 14.89-4.73 22.36-10.77 37.95 4.97 0.84 1.54-4.92 4.87-5.97 4.52-6.18 8.78 4.5 2.48 6.04 3.53 3.08-5.84 15.58-10.69 15.79 5.17 3.25-2.85 4.66 4.32 5.51 2.97 4.97-7.15 0.62-5.92 4.27 10.65 1.11-1.74-0.24 1.41 3.26 9.41 5.72-5.37 13.88 0.87 18.96-4.35 0 1.56 9.75-4.54 6.08 1.77 3.87 2.04 8.19 1.53 12.11 2.96 2.59-8.03 6.38-0.74 5.21 4.44 3.56-9.66 4.16-6.19 8.59 1.37 2.43 6.29-4.28 4.66-0.77-6 4.31 2.29 12.91 1.47 17.01 6.78 2.46-4.37 0.85-2.31 6.44 7.77-0.41-12.31 8.02-4.03 11.38-3.05 5.18-4.56 11.29-7.07 16.87 5.22 3.19 3.28 12.63-1.23 17.21 1.34 2.49 1.58 5.69-2.26 5.38-0.82 3.69 1.53 10.88-2.69 12.29 7.72 0.11-8.96 14.36 3.7 14.86 6.05 2.92-2.03 6.58-2.84 10.41 2.13-1.33 6.03-4.7 7.5-1.41-3.15-0.04-6.95 4.14-1.81 2.08-1.96 5.07-5.92 7.11-8.94 12.15 9.25-2.95-4.79 5.49 6.13 3.89 9.83 3.69-13.54 3.62-5.52 4.29-2 8.59 18.37 5.44 7.58 10.84 8.35 1.26 10.65 5.89 15.03 11.68 11.49 8.54 30.68-5.87 39.53 7.8 12.27-0.8 25.6 3.29 37.92-0.43-1.46 4.71 2.6 4.27 5.43 2.11 5.42 5.73 8.49-5.41 17.99-1.43-7.43 7.54 11.11 1.67 12.76 2.49-7.74-2.94 6.19-1.65 3.37 3.62 6.09-2.75 24.83-1.58 7.79 3 11.93 3.96 9.15-12.29 18.98-9.01-10.4 9.73 11.63-3.96 13.34-2.5-3.53 5.76 13.91 1.19 5.79 6.77 3.92-3.13 10.51 0.84 12.57-4.61 1.51-5.31 10.8 0.01 7.53 4.43 6.02-5 13.95 1.24 20.18-5.63-6.72 7.3 2.77 5.63 6.31 2.33 12.4 3.3 27.86 0.21 40.41 0.93-4.49 2.96-13.05 2.01-12.47 7.43 6.41 5.29 23.48-7.3 21.43 2.18 7.86-4.55 19.92-5.16 26.53-2.77 0.02-1.23 21.11-15.23 12.48-4.28 7.78 2.68 11.32-10 17.16-3.54 1.8-4.84 9.32 2.48 8.14-2.62 8.74-1.48 17.65-4.68 26.54-3.83-5.6-4.28 7.67-7.16 5.54-1.32 6.14-0.05 9.18-8.37 16.06-5.24 5.33 3.4 10.32-0.83 5.83-3.84 7.92 3.76 13.86 2.3 21.31-2.5 8.33-3.09-6.72 11.61 2.48 8.99 5.02-0.82-3.39-2.26-0.04-4.28 3.78-2.51 16.44-12.26 11.7-5.58 2.03 5.24 6.06-5.92 10.97 2.07-2.14-5.17 7.5-2.43 5.71-7.35 7.82-0.43 5.32-10.2 11.51-6.45 3.92-5.46 0.9-10.42 7.92-11.59-1.89-2.77-5.59-5.49-0.69-4.99-1.46-6.08-0.63-13.41 5.78-17.35 0.38-9.86 1.11-19.81-0.63-29.47 6.54-1.77 0.51-13.03 0.1-16.92 0.45-9.81-2.32-15.73 3.2-26.65-5.67 0.5-12.18 9.66-11.47 1.37 0.27-3.91 4.48-9.79-1.61-15.03 1.63-7.48 9.97-13.91 2.8-21.12-1.39-10.02-4.81-20.95 0.64-30.09-1.55-6.19 0.43-16.46-5.1-18.72 5.63 3.53 4.25-3.69 1.15-2.95-5.41-0.58 6.26-4.42 1.58-5.76-4.54-0.38-2.59-7.3 1.56-4.6-7.12-3.26-1.91-7.73-2.61-13.04 4.14-13.83-6.84-28.9-4.56-38.56-8.59-7.02-10.4-21.6-12.27-28.02 5.68 1.38 1-6.02-2.11-6.65 4.2-7.61 4.84-7.84 3.52-15.04-13.69 2.28-7.49-14.31-10.84-21.74-4.08-3.06 8.5-8.14 0.88-5.58-5.32 3.66 0.71-3.16-3.85-0.86-6.19 2.79-0.13-5.01-1.76-7.95-4.95-6.99 4.82-17.12 0.29-22.85 2.15-5.88-3.41-12.46 1.15-18.12 3.42-4.77-6.3-5.01-0.51-8.8-1.32-3.69-12.78-5.31-8.08-12.05 6.36-2.44-3.92-12.38 3.05-11.78 0.86-3.83-0.23-6.06-3.99-3.54 1.22-4.11 2-8.5-3.21-9.97 6.4-8.42-7.05-9.4-6.31-17.38-7.79-1.63 5.81-12.86-4.75-10.96 6.4-4.74-5.22-9.28-2.56-13.28-1.56 0.49-12.56-4.57-2.35-3.91 0.18-5.25-10.06 0.35-3.58-3.95-6.34-4.5-1.58-14.12-4.51-19.2-10.72 3.68-5.91-11.15-4.74-13.14-7.41 0.18 5.65-2.43 1.67-5.21-4.61 6.27-12.33-7.7-3.29-4.17-3.78-4.42-3.5-8.87-8.81-12.08 8.25 2.09-4.61-3.55 1.7-3.08-1.51-4.63-2.94-12.11-8.2-12.99 1.09 3.79-4.61 2.27-4.36-0.71 2.84-0.62 7.06-3.17 1.95-4.06-0.09-7.18-7.74-13.87-10.18-21.28-8.51 0.21-8.33-16.43-15.76-20.07-9.04 3.59-8.41-14.87-16.95-15.68 7.15-9.79-16.29-7.95-5.35-12.69-6.52-2.35-1.57-5.44-6.65-7.45 6.75 3.98 4.47-5.12-0.85-4.32 4.06 4.47-5.96 2.36-8.03 1.36-2.47-9.66-6.58-19.58-16.36-21.24 7.4-1.36-2.66-1.86-2.04-7.51-7.98-4.9-16.26-13.84-20.95-20.07 7.93-8.13-15.6-9.24-15.98-18.86 4.2-11.35-17.7-11.71-12.47-20.4-4.03-1.92-1.89-8.46 3.73-6.3-0.69-6.16-4.85-1.13-8.11-0.69-2.67-2.68-2.49-10.66-8.15-8.25-4.54-6.63-4.21-17.61-12.67-22.41 6.31-1.53-1.2-6.93 0.33-13.04-7.7-7.49-11.84-10.3-6.18-17.94-3.97-8.15 7.01-14.08-2.23-15.67-7.77-0.99 5.85-4.55 1.8-8.99-0.95-4.42-4.11-1.8-4.14 0.72-12.26 3.72-2.38-7.75-3.45-13.23-2.66-5.61 3.38-13.38-2.46-17.94-1.9-14.54 7-31.43 5.54-47.68 2.52-5.4-7.06-8.23-7.6-1.59-9.37 11.7-11.78 30.65-24.68 38.35 4.94-16.12 14.89-29.91 22.01-45.07 5.54-6.59-5.14-10.23-10.29-12.04-14.17 15.18-19.23 40.46-33.93 54.56 5.88-20.22 18.96-38.08 26.71-56.74-8.84-0.97-5.44 11.31-12.24 13.55-12.55 22.74-24.58 46.55-40.33 66.68 12.58-27.22 28.26-53.05 41.71-79.38-3.3-6.23-15.23-2.97-21.9-2.01 5.07 5.64-3.45 11.51-5.18 17-26.53 39.62-44.39 85.25-72.61 122.45 26.03-45.24 47.93-93.95 76.59-139.37-27.42 1.03-53.52-6.16-77.71-17.85-13.86 20.2-27.24 41.56-41.82 61.37 10.99-22.36 26.55-44.21 38.36-64.89-3.24-2.66-10.1-7.21-12.59-1.47-13.11 19.15-26.61 38.43-40.13 56.92 12.33-20.78 24.31-44.34 39.61-61.53-5.69-5.63-13.64-11.53-21-13.03m-738.56 0.18c1.89 2.8 3 5.77-3.01 3.08-46.31-1.92-92.75-0.46-138.96-0.55 2.28 7.42-0.75 14.59-1.84 21.87 55.83 2.94 111.46 1.11 167.36 0.56 11.64 1.56 5.54-13.8 7.65-19.92-10.1-4.48-22.94 2.48-31.2-5.04m-810.41 2.01c-6.55 1.39-15.61-1.38-20.81 2.37 32.45 3.92 65.46 1.03 98.16 1.07 5.69 5.46 8.14-7.87 0.72-3.66-25.98-0.57-52.1-0.83-78.07 0.22m301.65 11.01c-59.9 1.13-119.7 1.6-179.61 1.96-9.19-2.87-7.59 11.9 0.06 9.88 176.23 1.87 352.24 2.01 528.62-0.48 2.64-1.21 7.2-7.04 3.11-8.39-117.87-2.9-234.36-1.69-352.18-2.97m-324.71 1.53c-2.66 2.77-1.83 10.83 4.27 10.31 32.84 0.53 65.66 0.2 98.45-1.11 4.96 0.51 4.98-7.96 0.04-7.7-34.19-3.01-68.48-0.45-102.76-1.5m986.81 6.4c-25.74 3.41-53.72-0.59-78.28 3.36 7.86 6.16 22.64 0.62 33.12 3.14 89.51 1.13 180.38-0.96 270.59-1.18 3.27-2.17 14.36 2.14 14.06-3.57-79.62-1.57-160.27 1.31-239.49-1.75m49.85 11.68c-42.23 4.62-84.03-0.27-128.09 3.95-1.77 5.01 6.02 2.65 8.24 3.68 35.28 0.28 69.09 2.72 103.83 1.79 67.66-2.14 135.86 2.19 203.39-3.01 2.22-5.83-8.72-2.68-11.58-2.99-58.5-3.29-117.64 1.64-175.79-3.42m-59.93 14.13c-22.17 3.96-47.23-1.48-69 3-6.24 18.78 15.55 12.86 27.24 13.06 85.49 1.04 171.01-0.51 256.41 0.22 9.74-0.17 22.06-4.58 25.94-13.47-72.34-3.99-145.36 0.85-216.66-3.4 7.46 4.92-19.73 2.65-23.93 0.59m-278.68 3.22c-7.1 0.67-14.23 0.38-21.32 0.23 2.44 10.12 12.02 17.21 17.47 25.71 53.88-1.22 108.39 1.39 162.43-2 0.7-3.84 3.64-3 6.46-3.05 1.86-6.21 3.53-15.78-0.97-20.29-54.44-0.71-109.08 1.44-164.07-0.6m172.79 6.58c-0.76 35.37 0.85 71.33-0.01 106.95 0.66 9.95-1.59 22.33 8.35 28.53 158.69-0.83 317.08 0.67 475.76-0.67 1.44-2.3 2.57-7.55-1.62-7.05-150.88-0.61-303.74-1.6-453.65 0.99-2.36-41.96 1-83.41 0.09-126.26-7.33-5.08-19.95-1.57-28.92-2.49m141.12 13.37c-29.91 2.65-61.08-0.17-91.36 2.37-4.85-1.57-19.75 0-7.72 3.57 94.34 1.12 188.76 0.28 283.14 0.31 3.12 0.25 0.6-4.33-1.33-4.34-60.94-2.1-122.37 0.69-182.73-1.91m239.72 14.09c-15.94 2.91-34.98-1.61-49.01 1.18 30.29 3.02 65.7 0.91 95.87-0.76-15.63-0.23-31.26 0.4-46.86-0.42m-216.31 0.38c0.06 2.83 3.39 1.79 5.29 2.08 45.52 0.18 91.07-0.45 136.67 0-3.48-4.87-16.57-1.08-23-1.47-39.66-1.81-79.39 1.37-118.96-0.61m151.41 0.13c0.81 4.68 10.37-0.36 14.91 1.99-3.01-4.1-10.55-1.41-14.91-1.99m112.9-0.11c2.43 3.37 11.66-0.17 16 1.02-2.47-3.38-11.73 0.16-16-1.02m-280.65 8.52c-26.88 3.15-54.71-0.8-81.56 1.62 26.64 3.88 55-0.86 82.38 2.45 50.4-3.13 103.51 1.21 152.68-2.58-51.17-1.74-102.37-0.49-153.5-1.49m176.51 0.73c11.94 5.16 10.46-1.92 0 0m25.9-0.43c4.57 6.21 12.83-1.09 0 0m85.23 0.14c1.91 3.04 9.38 0.1 13.02 1.1-1.91-3.04-9.5-0.13-13.02-1.1m-132 1.02c2.84 3.4 12.27-0.12 17.02 1.06-2.87-3.4-12.34 0.11-17.02-1.06m305.49 0.04c1.4 8.24 8.3-2.46 0 0m-768.18 2.45c-1.7 0.34-5.11-0.18-4.21 2.55 40.52 0.57 82.63 0.91 122.02-0.82-39.19-1.59-78.5-0.98-117.81-1.73m336.96 6.08c-15.28 1.77-33.77-1.14-47.05 1.32 41.49 0.76 83.99 1.5 123.74-0.84-25.65-0.42-51.09-0.73-76.69-0.48m105.98-0.02c-5.14 1.05-12.33-0.89-16.23 1.45 21 0.11 42.01 0.01 63.02 0.03-13.93-2.49-31.36-0.73-46.79-1.48m82.93-0.49c9.35 3.49 27.69 1.37 39.74 0.72-10.23-0.29-27.23-0.36-39.74-0.72m-264.2 0.91c2.35 2.93 10.02 0.13 14 1.12-2.34-2.93-10.11-0.15-14-1.12m154 0.06c8.91 3.47 14.26-1.72 0 0m75.99-0.04c3.33 3.29 12.82-0.04 18.02 1.08-3.35-3.29-12.9 0.02-18.02-1.08m20 0.01c9.19 4.19 18.27-2.49 0 0m-482.35 4.58c-8.08 2.66-28.94-2.99-30.66 2.29 42.55 2.79 86.62 1.25 129.84-0.03 1.01-1.71 9.43 1.56 7.88-2.54-35.71 0.3-71.41-0.08-107.06 0.28m305.4 2.04c-8.93 2.22-18.24 1.04-27.08 2.59 10.89 0.26 23.52 1.23 35.06-0.15-1.92-1.91-5.34-1.98-7.98-2.44m36.51 0.78c-7.34 2.14 8.18 3.46 9.99 2.42 4.7-3.36-8.04-3.19-9.99-2.42m-92.18 0.8c-4.37 5.61 16.4-2.2 0 0m18.97-0.29c4.67 5.96 13.88-2.96 0 0m-290.77 8.58c-2.35 0.55-8.53-1.58-6.19 2.22 48.39 1.68 96.64-0.24 145.06 2.02 4.69 4.39 6.65-5.86 2.02-3.23-46.9-1.52-93.93-1.48-140.89-1.01m674.82 5.86c-7.77 5.98 8.3 1.16 0 0m5.5 0.98c-1.52 5.68 7.92 4.88 0 0m-685.52 0.95c-3.28 4.43 0.32 14.78 3.38 19.24 47.56 2.56 96.28-0.44 143.75 3.06 3.83-4.79 3.32-14.77 1.23-19.22-49.35-1.59-98.92-3.02-148.36-3.08m321.84 23.26c-41.69 2-83.77 0.81-125.55 1.94-2.18 5.21-3.07 16.71 6.27 14 94.49-0.2 188.45 0.81 282.41-1.19 7.78 0.18-2.53 13.04 5.9 9.31 2.37-5.52 8.32-11.3 5.64-17.41-6.92-0.62-11.06-7.46-18.54-5.45-51.92-0.43-103.99 0.13-156.13-1.2m-309.7 2.07c-13.6-3.44-4.84 12.3-3.87 19.88 46.28 2.15 93.01 1.59 139.56 1.37 4.95-5.25 0-12.96 1.31-19.22-45.44-0.25-91.43-3.11-137-2.03m13.62 24.87c-5.23 2.65-12.9-1.32-16.9 2.68 1.86 7.85-3.86 23.73 9.13 22.58 129.57 0.32 259.64 0.66 389.09 1.02 69.76-0.61 142.4 2.93 210.53-3.71-154.51-2.45-308.04-0.04-462.3-0.18 0.61-7.84-8.84-10.41-6.91-18.53-40.96-2.04-82.02-1.08-122.64-3.86m22.21 45.08c-11.34 1.31-22.81 0.24-34.17 0 1.88 6.67 2.76 13.67 2.04 20.6 53.82 1.86 107.78 0.73 161.64 0.47 10.8 1.63 8.8-15.42 5.19-19.6-44.49-0.38-89.76-1.79-134.7-1.47m1026.8 9.42c4.1 11.58 8.35 1.97 0 0m-1052.4 29.44c-5.01-0.5-5.86 5.97-5.5 9.59 54.76-0.42 109.59 1.54 164.29-1.31 1.44-2.88 1.63-8.57-2.64-7.64-52.07-1.08-104.02-0.81-156.15-0.64m781.11 70c5.64 5.75 9.84-1.92 0 0m22.65 10.84c-11.56 3.94 7.23 2.78 0 0m1.82 6.06c-0.48 3.44 9.36 9.51 12.85 13.7 2.46-4.14 1.94-9.38-4.13-9.77 5.33-4.44-6.41-2.87-8.72-3.93m360.17 21.87c-4.77 6.12 9.5-0.86 0 0z"/>
</svg>
